<svg xmlns="http://www.w3.org/2000/svg" width="1920" height="300"><path d="M-112,-148L72,-135L374,-134Z" fill="#f4f4f4" stroke="#f4f4f4" stroke-width="1.51"/><path d="M299,430L35,427L503,448Z" fill="#717171" stroke="#717171" stroke-width="1.51"/><path d="M-112,-148L374,-134L518,-141Z" fill="#eeeeee" stroke="#eeeeee" stroke-width="1.51"/><path d="M-112,-148L518,-141L1198,-148Z" fill="#e2e2e2" stroke="#e2e2e2" stroke-width="1.51"/><path d="M518,-141L937,-134L1198,-148Z" fill="#cccccc" stroke="#cccccc" stroke-width="1.51"/><path d="M1038,411L683,443L1232,433Z" fill="#505050" stroke="#505050" stroke-width="1.51"/><path d="M1198,-148L1455,-115L1525,-117Z" fill="#aaaaaa" stroke="#aaaaaa" stroke-width="1.51"/><path d="M683,443L503,448L1628,444Z" fill="#4f4f4f" stroke="#4f4f4f" stroke-width="1.51"/><path d="M1232,433L683,443L1628,444Z" fill="#424242" stroke="#424242" stroke-width="1.51"/><path d="M1450,423L1232,433L1628,444Z" fill="#363636" stroke="#363636" stroke-width="1.51"/><path d="M1727,-94L1835,-87L1960,-99Z" fill="#828282" stroke="#828282" stroke-width="1.51"/><path d="M1854,415L1628,444L1963,440Z" fill="#1d1d1d" stroke="#1d1d1d" stroke-width="1.51"/><path d="M1974,101L2038,193L2054,75Z" fill="#545454" stroke="#545454" stroke-width="1.51"/><path d="M1198,-148L1525,-117L2071,-126Z" fill="#9b9b9b" stroke="#9b9b9b" stroke-width="1.51"/><path d="M1727,-94L1960,-99L2071,-126Z" fill="#7e7e7e" stroke="#7e7e7e" stroke-width="1.51"/><path d="M1525,-117L1727,-94L2071,-126Z" fill="#8a8a8a" stroke="#8a8a8a" stroke-width="1.51"/><path d="M2050,-43L2054,75L2071,-126Z" fill="#6d6d6d" stroke="#6d6d6d" stroke-width="1.51"/><path d="M1993,311L2071,394L2083,300Z" fill="#272727" stroke="#272727" stroke-width="1.51"/><path d="M2038,193L1993,311L2083,300Z" fill="#363636" stroke="#363636" stroke-width="1.51"/><path d="M2054,75L2038,193L2083,300Z" fill="#454545" stroke="#454545" stroke-width="1.51"/><path d="M2071,-126L2054,75L2083,300Z" fill="#5a5a5a" stroke="#5a5a5a" stroke-width="1.51"/><path d="M2050,-43L1937,18L2054,75Z" fill="#696969" stroke="#696969" stroke-width="1.51"/><path d="M1960,-99L2050,-43L2071,-126Z" fill="#767676" stroke="#767676" stroke-width="1.51"/><path d="M1993,311L1963,440L2071,394Z" fill="#1d1d1d" stroke="#1d1d1d" stroke-width="1.51"/><path d="M1936,238L1993,311L2038,193Z" fill="#3d3d3d" stroke="#3d3d3d" stroke-width="1.51"/><path d="M1937,18L1974,101L2054,75Z" fill="#636363" stroke="#636363" stroke-width="1.51"/><path d="M1960,-99L1937,18L2050,-43Z" fill="#737373" stroke="#737373" stroke-width="1.51"/><path d="M1974,101L1936,238L2038,193Z" fill="#4c4c4c" stroke="#4c4c4c" stroke-width="1.51"/><path d="M1728,401L1628,444L1854,415Z" fill="#252525" stroke="#252525" stroke-width="1.51"/><path d="M1847,334L1854,415L1963,440Z" fill="#202020" stroke="#202020" stroke-width="1.51"/><path d="M1827,125L1936,238L1974,101Z" fill="#545454" stroke="#545454" stroke-width="1.51"/><path d="M1847,334L1963,440L1993,311Z" fill="#262626" stroke="#262626" stroke-width="1.51"/><path d="M1936,238L1847,334L1993,311Z" fill="#383838" stroke="#383838" stroke-width="1.51"/><path d="M1827,125L1838,217L1936,238Z" fill="#4f4f4f" stroke="#4f4f4f" stroke-width="1.51"/><path d="M1853,-41L1937,18L1960,-99Z" fill="#787878" stroke="#787878" stroke-width="1.51"/><path d="M1937,18L1827,125L1974,101Z" fill="#646464" stroke="#646464" stroke-width="1.51"/><path d="M1835,-87L1853,-41L1960,-99Z" fill="#7e7e7e" stroke="#7e7e7e" stroke-width="1.51"/><path d="M1838,217L1847,334L1936,238Z" fill="#404040" stroke="#404040" stroke-width="1.51"/><path d="M1853,-41L1827,125L1937,18Z" fill="#6f6f6f" stroke="#6f6f6f" stroke-width="1.51"/><path d="M1525,-117L1633,-81L1727,-94Z" fill="#969696" stroke="#969696" stroke-width="1.51"/><path d="M1827,125L1744,196L1838,217Z" fill="#565656" stroke="#565656" stroke-width="1.51"/><path d="M1838,217L1740,280L1847,334Z" fill="#434343" stroke="#434343" stroke-width="1.51"/><path d="M1761,68L1827,125L1853,-41Z" fill="#707070" stroke="#707070" stroke-width="1.51"/><path d="M1739,-5L1761,68L1853,-41Z" fill="#7a7a7a" stroke="#7a7a7a" stroke-width="1.51"/><path d="M1847,334L1728,401L1854,415Z" fill="#272727" stroke="#272727" stroke-width="1.51"/><path d="M1835,-87L1739,-5L1853,-41Z" fill="#7f7f7f" stroke="#7f7f7f" stroke-width="1.51"/><path d="M1740,280L1728,401L1847,334Z" fill="#363636" stroke="#363636" stroke-width="1.51"/><path d="M1727,-94L1739,-5L1835,-87Z" fill="#858585" stroke="#858585" stroke-width="1.51"/><path d="M1744,196L1740,280L1838,217Z" fill="#4e4e4e" stroke="#4e4e4e" stroke-width="1.51"/><path d="M1761,68L1744,196L1827,125Z" fill="#636363" stroke="#636363" stroke-width="1.51"/><path d="M1665,330L1728,401L1740,280Z" fill="#3b3b3b" stroke="#3b3b3b" stroke-width="1.51"/><path d="M1663,234L1740,280L1744,196Z" fill="#525252" stroke="#525252" stroke-width="1.51"/><path d="M1739,-5L1669,-4L1761,68Z" fill="#7d7d7d" stroke="#7d7d7d" stroke-width="1.51"/><path d="M1669,-4L1614,105L1761,68Z" fill="#7b7b7b" stroke="#7b7b7b" stroke-width="1.51"/><path d="M1614,105L1744,196L1761,68Z" fill="#6b6b6b" stroke="#6b6b6b" stroke-width="1.51"/><path d="M1727,-94L1669,-4L1739,-5Z" fill="#868686" stroke="#868686" stroke-width="1.51"/><path d="M1614,105L1663,234L1744,196Z" fill="#616161" stroke="#616161" stroke-width="1.51"/><path d="M1633,-81L1669,-4L1727,-94Z" fill="#8d8d8d" stroke="#8d8d8d" stroke-width="1.51"/><path d="M1663,234L1665,330L1740,280Z" fill="#4b4b4b" stroke="#4b4b4b" stroke-width="1.51"/><path d="M1665,330L1628,444L1728,401Z" fill="#2f2f2f" stroke="#2f2f2f" stroke-width="1.51"/><path d="M1550,407L1450,423L1628,444Z" fill="#333333" stroke="#333333" stroke-width="1.51"/><path d="M1614,105L1519,232L1663,234Z" fill="#656565" stroke="#656565" stroke-width="1.51"/><path d="M1519,232L1535,331L1663,234Z" fill="#575757" stroke="#575757" stroke-width="1.51"/><path d="M1550,407L1628,444L1665,330Z" fill="#333333" stroke="#333333" stroke-width="1.51"/><path d="M1535,331L1550,407L1665,330Z" fill="#404040" stroke="#404040" stroke-width="1.51"/><path d="M1663,234L1535,331L1665,330Z" fill="#4d4d4d" stroke="#4d4d4d" stroke-width="1.51"/><path d="M1633,-81L1572,-29L1669,-4Z" fill="#8f8f8f" stroke="#8f8f8f" stroke-width="1.51"/><path d="M1572,-29L1614,105L1669,-4Z" fill="#868686" stroke="#868686" stroke-width="1.51"/><path d="M1311,410L1232,433L1450,423Z" fill="#3e3e3e" stroke="#3e3e3e" stroke-width="1.51"/><path d="M1544,97L1519,232L1614,105Z" fill="#727272" stroke="#727272" stroke-width="1.51"/><path d="M1572,-29L1544,97L1614,105Z" fill="#858585" stroke="#858585" stroke-width="1.51"/><path d="M1525,-117L1572,-29L1633,-81Z" fill="#999999" stroke="#999999" stroke-width="1.51"/><path d="M1525,-117L1455,-115L1572,-29Z" fill="#9e9e9e" stroke="#9e9e9e" stroke-width="1.51"/><path d="M1455,-115L1403,20L1572,-29Z" fill="#9b9b9b" stroke="#9b9b9b" stroke-width="1.51"/><path d="M1403,20L1544,97L1572,-29Z" fill="#8e8e8e" stroke="#8e8e8e" stroke-width="1.51"/><path d="M1198,-148L1349,-87L1455,-115Z" fill="#adadad" stroke="#adadad" stroke-width="1.51"/><path d="M1410,132L1407,198L1519,232Z" fill="#707070" stroke="#707070" stroke-width="1.51"/><path d="M1519,232L1464,340L1535,331Z" fill="#555555" stroke="#555555" stroke-width="1.51"/><path d="M1410,132L1519,232L1544,97Z" fill="#757575" stroke="#757575" stroke-width="1.51"/><path d="M1535,331L1464,340L1550,407Z" fill="#444444" stroke="#444444" stroke-width="1.51"/><path d="M1464,340L1450,423L1550,407Z" fill="#3d3d3d" stroke="#3d3d3d" stroke-width="1.51"/><path d="M1403,20L1410,132L1544,97Z" fill="#888888" stroke="#888888" stroke-width="1.51"/><path d="M932,399L683,443L1038,411Z" fill="#585858" stroke="#585858" stroke-width="1.51"/><path d="M1407,198L1464,340L1519,232Z" fill="#606060" stroke="#606060" stroke-width="1.51"/><path d="M1349,-87L1403,20L1455,-115Z" fill="#a2a2a2" stroke="#a2a2a2" stroke-width="1.51"/><path d="M1350,342L1450,423L1464,340Z" fill="#464646" stroke="#464646" stroke-width="1.51"/><path d="M1407,198L1350,342L1464,340Z" fill="#5c5c5c" stroke="#5c5c5c" stroke-width="1.51"/><path d="M1321,221L1350,342L1407,198Z" fill="#676767" stroke="#676767" stroke-width="1.51"/><path d="M1350,342L1311,410L1450,423Z" fill="#434343" stroke="#434343" stroke-width="1.51"/><path d="M1349,-87L1293,-12L1403,20Z" fill="#a0a0a0" stroke="#a0a0a0" stroke-width="1.51"/><path d="M1403,20L1296,111L1410,132Z" fill="#8c8c8c" stroke="#8c8c8c" stroke-width="1.51"/><path d="M1321,221L1407,198L1410,132Z" fill="#757575" stroke="#757575" stroke-width="1.51"/><path d="M1296,111L1321,221L1410,132Z" fill="#7e7e7e" stroke="#7e7e7e" stroke-width="1.51"/><path d="M1293,-12L1296,111L1403,20Z" fill="#979797" stroke="#979797" stroke-width="1.51"/><path d="M937,-134L1033,-116L1198,-148Z" fill="#c0c0c0" stroke="#c0c0c0" stroke-width="1.51"/><path d="M1033,-116L1100,-118L1198,-148Z" fill="#bcbcbc" stroke="#bcbcbc" stroke-width="1.51"/><path d="M1321,221L1218,289L1350,342Z" fill="#646464" stroke="#646464" stroke-width="1.51"/><path d="M1218,289L1311,410L1350,342Z" fill="#545454" stroke="#545454" stroke-width="1.51"/><path d="M1237,-15L1293,-12L1349,-87Z" fill="#a6a6a6" stroke="#a6a6a6" stroke-width="1.51"/><path d="M1198,-148L1237,-15L1349,-87Z" fill="#aeaeae" stroke="#aeaeae" stroke-width="1.51"/><path d="M1293,-12L1237,-15L1296,111Z" fill="#9d9d9d" stroke="#9d9d9d" stroke-width="1.51"/><path d="M1237,-15L1229,124L1296,111Z" fill="#969696" stroke="#969696" stroke-width="1.51"/><path d="M1218,289L1232,433L1311,410Z" fill="#4d4d4d" stroke="#4d4d4d" stroke-width="1.51"/><path d="M1296,111L1229,124L1321,221Z" fill="#828282" stroke="#828282" stroke-width="1.51"/><path d="M1229,124L1212,236L1321,221Z" fill="#7a7a7a" stroke="#7a7a7a" stroke-width="1.51"/><path d="M1212,236L1218,289L1321,221Z" fill="#6e6e6e" stroke="#6e6e6e" stroke-width="1.51"/><path d="M1151,96L1098,227L1212,236Z" fill="#828282" stroke="#828282" stroke-width="1.51"/><path d="M1089,310L1093,378L1218,289Z" fill="#636363" stroke="#636363" stroke-width="1.51"/><path d="M1151,96L1212,236L1229,124Z" fill="#878787" stroke="#878787" stroke-width="1.51"/><path d="M1093,378L1038,411L1232,433Z" fill="#4d4d4d" stroke="#4d4d4d" stroke-width="1.51"/><path d="M1218,289L1093,378L1232,433Z" fill="#545454" stroke="#545454" stroke-width="1.51"/><path d="M1085,9L1151,96L1237,-15Z" fill="#a4a4a4" stroke="#a4a4a4" stroke-width="1.51"/><path d="M1198,-148L1100,-118L1237,-15Z" fill="#b4b4b4" stroke="#b4b4b4" stroke-width="1.51"/><path d="M1100,-118L1085,9L1237,-15Z" fill="#b0b0b0" stroke="#b0b0b0" stroke-width="1.51"/><path d="M1151,96L1229,124L1237,-15Z" fill="#9a9a9a" stroke="#9a9a9a" stroke-width="1.51"/><path d="M518,-141L707,-92L937,-134Z" fill="#d6d6d6" stroke="#d6d6d6" stroke-width="1.51"/><path d="M707,-92L834,-101L937,-134Z" fill="#cdcdcd" stroke="#cdcdcd" stroke-width="1.51"/><path d="M1212,236L1098,227L1218,289Z" fill="#737373" stroke="#737373" stroke-width="1.51"/><path d="M1098,227L1089,310L1218,289Z" fill="#707070" stroke="#707070" stroke-width="1.51"/><path d="M518,-141L561,-122L707,-92Z" fill="#dddddd" stroke="#dddddd" stroke-width="1.51"/><path d="M1085,9L1044,25L1151,96Z" fill="#a6a6a6" stroke="#a6a6a6" stroke-width="1.51"/><path d="M1044,25L1012,112L1151,96Z" fill="#a1a1a1" stroke="#a1a1a1" stroke-width="1.51"/><path d="M1012,112L1098,227L1151,96Z" fill="#8f8f8f" stroke="#8f8f8f" stroke-width="1.51"/><path d="M1033,-116L1044,25L1085,9Z" fill="#b4b4b4" stroke="#b4b4b4" stroke-width="1.51"/><path d="M1089,310L1032,305L1093,378Z" fill="#656565" stroke="#656565" stroke-width="1.51"/><path d="M1012,112L1033,220L1098,227Z" fill="#888888" stroke="#888888" stroke-width="1.51"/><path d="M1032,305L1089,310L1098,227Z" fill="#727272" stroke="#727272" stroke-width="1.51"/><path d="M1033,220L1032,305L1098,227Z" fill="#7a7a7a" stroke="#7a7a7a" stroke-width="1.51"/><path d="M1033,-116L1085,9L1100,-118Z" fill="#b9b9b9" stroke="#b9b9b9" stroke-width="1.51"/><path d="M1032,305L1038,411L1093,378Z" fill="#5c5c5c" stroke="#5c5c5c" stroke-width="1.51"/><path d="M576,437L503,448L683,443Z" fill="#636363" stroke="#636363" stroke-width="1.51"/><path d="M937,-134L874,-21L1033,-116Z" fill="#c4c4c4" stroke="#c4c4c4" stroke-width="1.51"/><path d="M900,301L1032,305L1033,220Z" fill="#787878" stroke="#787878" stroke-width="1.51"/><path d="M1012,112L941,181L1033,220Z" fill="#8f8f8f" stroke="#8f8f8f" stroke-width="1.51"/><path d="M1032,305L932,399L1038,411Z" fill="#5d5d5d" stroke="#5d5d5d" stroke-width="1.51"/><path d="M897,114L1012,112L1044,25Z" fill="#a5a5a5" stroke="#a5a5a5" stroke-width="1.51"/><path d="M874,-21L897,114L1044,25Z" fill="#b0b0b0" stroke="#b0b0b0" stroke-width="1.51"/><path d="M1033,-116L874,-21L1044,25Z" fill="#bababa" stroke="#bababa" stroke-width="1.51"/><path d="M791,380L683,443L932,399Z" fill="#5f5f5f" stroke="#5f5f5f" stroke-width="1.51"/><path d="M900,301L932,399L1032,305Z" fill="#6b6b6b" stroke="#6b6b6b" stroke-width="1.51"/><path d="M941,181L900,301L1033,220Z" fill="#838383" stroke="#838383" stroke-width="1.51"/><path d="M897,114L941,181L1012,112Z" fill="#9a9a9a" stroke="#9a9a9a" stroke-width="1.51"/><path d="M834,-101L874,-21L937,-134Z" fill="#c7c7c7" stroke="#c7c7c7" stroke-width="1.51"/><path d="M786,218L900,301L941,181Z" fill="#898989" stroke="#898989" stroke-width="1.51"/><path d="M897,114L786,218L941,181Z" fill="#979797" stroke="#979797" stroke-width="1.51"/><path d="M900,301L791,380L932,399Z" fill="#676767" stroke="#676767" stroke-width="1.51"/><path d="M874,-21L807,6L897,114Z" fill="#b7b7b7" stroke="#b7b7b7" stroke-width="1.51"/><path d="M807,6L779,94L897,114Z" fill="#b2b2b2" stroke="#b2b2b2" stroke-width="1.51"/><path d="M779,94L786,218L897,114Z" fill="#a1a1a1" stroke="#a1a1a1" stroke-width="1.51"/><path d="M770,316L791,380L900,301Z" fill="#747474" stroke="#747474" stroke-width="1.51"/><path d="M786,218L770,316L900,301Z" fill="#838383" stroke="#838383" stroke-width="1.51"/><path d="M834,-101L807,6L874,-21Z" fill="#c4c4c4" stroke="#c4c4c4" stroke-width="1.51"/><path d="M779,94L727,200L786,218Z" fill="#9e9e9e" stroke="#9e9e9e" stroke-width="1.51"/><path d="M707,-92L807,6L834,-101Z" fill="#cbcbcb" stroke="#cbcbcb" stroke-width="1.51"/><path d="M711,130L727,200L779,94Z" fill="#a7a7a7" stroke="#a7a7a7" stroke-width="1.51"/><path d="M663,-19L779,94L807,6Z" fill="#bfbfbf" stroke="#bfbfbf" stroke-width="1.51"/><path d="M707,-92L663,-19L807,6Z" fill="#cbcbcb" stroke="#cbcbcb" stroke-width="1.51"/><path d="M663,-19L711,130L779,94Z" fill="#bababa" stroke="#bababa" stroke-width="1.51"/><path d="M730,319L770,316L786,218Z" fill="#858585" stroke="#858585" stroke-width="1.51"/><path d="M727,200L730,319L786,218Z" fill="#8f8f8f" stroke="#8f8f8f" stroke-width="1.51"/><path d="M770,316L730,319L791,380Z" fill="#767676" stroke="#767676" stroke-width="1.51"/><path d="M730,319L683,443L791,380Z" fill="#6a6a6a" stroke="#6a6a6a" stroke-width="1.51"/><path d="M663,-19L623,74L711,130Z" fill="#bfbfbf" stroke="#bfbfbf" stroke-width="1.51"/><path d="M711,130L613,213L727,200Z" fill="#a1a1a1" stroke="#a1a1a1" stroke-width="1.51"/><path d="M611,336L683,443L730,319Z" fill="#727272" stroke="#727272" stroke-width="1.51"/><path d="M727,200L613,213L730,319Z" fill="#929292" stroke="#929292" stroke-width="1.51"/><path d="M613,213L611,336L730,319Z" fill="#8a8a8a" stroke="#8a8a8a" stroke-width="1.51"/><path d="M623,74L613,213L711,130Z" fill="#adadad" stroke="#adadad" stroke-width="1.51"/><path d="M561,-122L663,-19L707,-92Z" fill="#d6d6d6" stroke="#d6d6d6" stroke-width="1.51"/><path d="M582,14L623,74L663,-19Z" fill="#c8c8c8" stroke="#c8c8c8" stroke-width="1.51"/><path d="M611,336L576,437L683,443Z" fill="#6a6a6a" stroke="#6a6a6a" stroke-width="1.51"/><path d="M72,-135L166,-112L374,-134Z" fill="#efefef" stroke="#efefef" stroke-width="1.51"/><path d="M561,-122L582,14L663,-19Z" fill="#d3d3d3" stroke="#d3d3d3" stroke-width="1.51"/><path d="M505,308L611,336L613,213Z" fill="#8f8f8f" stroke="#8f8f8f" stroke-width="1.51"/><path d="M517,97L613,213L623,74Z" fill="#b3b3b3" stroke="#b3b3b3" stroke-width="1.51"/><path d="M582,14L517,97L623,74Z" fill="#c3c3c3" stroke="#c3c3c3" stroke-width="1.51"/><path d="M561,-122L481,-17L582,14Z" fill="#d6d6d6" stroke="#d6d6d6" stroke-width="1.51"/><path d="M505,308L576,437L611,336Z" fill="#797979" stroke="#797979" stroke-width="1.51"/><path d="M517,97L455,176L613,213Z" fill="#aeaeae" stroke="#aeaeae" stroke-width="1.51"/><path d="M455,176L505,308L613,213Z" fill="#9d9d9d" stroke="#9d9d9d" stroke-width="1.51"/><path d="M505,308L503,448L576,437Z" fill="#707070" stroke="#707070" stroke-width="1.51"/><path d="M481,-17L517,97L582,14Z" fill="#cbcbcb" stroke="#cbcbcb" stroke-width="1.51"/><path d="M518,-141L481,-17L561,-122Z" fill="#dedede" stroke="#dedede" stroke-width="1.51"/><path d="M386,394L299,430L503,448Z" fill="#707070" stroke="#707070" stroke-width="1.51"/><path d="M455,176L401,229L505,308Z" fill="#9f9f9f" stroke="#9f9f9f" stroke-width="1.51"/><path d="M386,394L503,448L505,308Z" fill="#767676" stroke="#767676" stroke-width="1.51"/><path d="M389,309L386,394L505,308Z" fill="#878787" stroke="#878787" stroke-width="1.51"/><path d="M481,-17L387,9L517,97Z" fill="#cecece" stroke="#cecece" stroke-width="1.51"/><path d="M387,9L366,109L517,97Z" fill="#c9c9c9" stroke="#c9c9c9" stroke-width="1.51"/><path d="M374,-134L481,-17L518,-141Z" fill="#e2e2e2" stroke="#e2e2e2" stroke-width="1.51"/><path d="M366,109L455,176L517,97Z" fill="#bababa" stroke="#bababa" stroke-width="1.51"/><path d="M401,229L389,309L505,308Z" fill="#969696" stroke="#969696" stroke-width="1.51"/><path d="M374,-134L387,9L481,-17Z" fill="#dddddd" stroke="#dddddd" stroke-width="1.51"/><path d="M366,109L401,229L455,176Z" fill="#b1b1b1" stroke="#b1b1b1" stroke-width="1.51"/><path d="M307,-4L275,62L366,109Z" fill="#d0d0d0" stroke="#d0d0d0" stroke-width="1.51"/><path d="M166,-112L312,-95L374,-134Z" fill="#ebebeb" stroke="#ebebeb" stroke-width="1.51"/><path d="M307,-4L366,109L387,9Z" fill="#d2d2d2" stroke="#d2d2d2" stroke-width="1.51"/><path d="M374,-134L312,-95L387,9Z" fill="#e3e3e3" stroke="#e3e3e3" stroke-width="1.51"/><path d="M312,-95L307,-4L387,9Z" fill="#dedede" stroke="#dedede" stroke-width="1.51"/><path d="M261,334L386,394L389,309Z" fill="#878787" stroke="#878787" stroke-width="1.51"/><path d="M290,172L261,334L389,309Z" fill="#9d9d9d" stroke="#9d9d9d" stroke-width="1.51"/><path d="M290,172L389,309L401,229Z" fill="#a4a4a4" stroke="#a4a4a4" stroke-width="1.51"/><path d="M366,109L290,172L401,229Z" fill="#b3b3b3" stroke="#b3b3b3" stroke-width="1.51"/><path d="M159,386L35,427L299,430Z" fill="#797979" stroke="#797979" stroke-width="1.51"/><path d="M261,334L299,430L386,394Z" fill="#7b7b7b" stroke="#7b7b7b" stroke-width="1.51"/><path d="M275,62L290,172L366,109Z" fill="#c3c3c3" stroke="#c3c3c3" stroke-width="1.51"/><path d="M143,217L153,300L261,334Z" fill="#a0a0a0" stroke="#a0a0a0" stroke-width="1.51"/><path d="M143,217L261,334L290,172Z" fill="#a8a8a8" stroke="#a8a8a8" stroke-width="1.51"/><path d="M169,-5L307,-4L312,-95Z" fill="#e1e1e1" stroke="#e1e1e1" stroke-width="1.51"/><path d="M166,-112L169,-5L312,-95Z" fill="#e8e8e8" stroke="#e8e8e8" stroke-width="1.51"/><path d="M275,62L182,67L290,172Z" fill="#c9c9c9" stroke="#c9c9c9" stroke-width="1.51"/><path d="M169,-5L275,62L307,-4Z" fill="#d9d9d9" stroke="#d9d9d9" stroke-width="1.51"/><path d="M261,334L159,386L299,430Z" fill="#7f7f7f" stroke="#7f7f7f" stroke-width="1.51"/><path d="M182,67L143,217L290,172Z" fill="#bdbdbd" stroke="#bdbdbd" stroke-width="1.51"/><path d="M169,-5L182,67L275,62Z" fill="#d7d7d7" stroke="#d7d7d7" stroke-width="1.51"/><path d="M153,300L159,386L261,334Z" fill="#8f8f8f" stroke="#8f8f8f" stroke-width="1.51"/><path d="M68,107L77,195L143,217Z" fill="#bdbdbd" stroke="#bdbdbd" stroke-width="1.51"/><path d="M72,-135L79,10L166,-112Z" fill="#eeeeee" stroke="#eeeeee" stroke-width="1.51"/><path d="M166,-112L79,10L169,-5Z" fill="#e6e6e6" stroke="#e6e6e6" stroke-width="1.51"/><path d="M68,107L143,217L182,67Z" fill="#c6c6c6" stroke="#c6c6c6" stroke-width="1.51"/><path d="M169,-5L79,10L182,67Z" fill="#dddddd" stroke="#dddddd" stroke-width="1.51"/><path d="M79,10L68,107L182,67Z" fill="#d7d7d7" stroke="#d7d7d7" stroke-width="1.51"/><path d="M153,300L79,322L159,386Z" fill="#929292" stroke="#929292" stroke-width="1.51"/><path d="M143,217L79,322L153,300Z" fill="#a2a2a2" stroke="#a2a2a2" stroke-width="1.51"/><path d="M79,322L35,427L159,386Z" fill="#858585" stroke="#858585" stroke-width="1.51"/><path d="M77,195L79,322L143,217Z" fill="#acacac" stroke="#acacac" stroke-width="1.51"/><path d="M-112,-148L-70,-92L72,-135Z" fill="#f7f7f7" stroke="#f7f7f7" stroke-width="1.51"/><path d="M68,107L-27,112L77,195Z" fill="#c7c7c7" stroke="#c7c7c7" stroke-width="1.51"/><path d="M-27,112L-50,174L77,195Z" fill="#c2c2c2" stroke="#c2c2c2" stroke-width="1.51"/><path d="M-50,174L-65,330L77,195Z" fill="#b1b1b1" stroke="#b1b1b1" stroke-width="1.51"/><path d="M-27,112L68,107L79,10Z" fill="#d6d6d6" stroke="#d6d6d6" stroke-width="1.51"/><path d="M-60,17L-27,112L79,10Z" fill="#dddddd" stroke="#dddddd" stroke-width="1.51"/><path d="M72,-135L-70,-92L79,10Z" fill="#efefef" stroke="#efefef" stroke-width="1.51"/><path d="M-70,-92L-60,17L79,10Z" fill="#e9e9e9" stroke="#e9e9e9" stroke-width="1.51"/><path d="M77,195L-65,330L79,322Z" fill="#a4a4a4" stroke="#a4a4a4" stroke-width="1.51"/><path d="M-65,330L35,427L79,322Z" fill="#8e8e8e" stroke="#8e8e8e" stroke-width="1.51"/><path d="M-65,330L-69,419L35,427Z" fill="#858585" stroke="#858585" stroke-width="1.51"/><path d="M-127,292L-65,330L-50,174Z" fill="#ababab" stroke="#ababab" stroke-width="1.51"/><path d="M-149,218L-127,292L-50,174Z" fill="#b4b4b4" stroke="#b4b4b4" stroke-width="1.51"/><path d="M-130,96L-50,174L-27,112Z" fill="#cccccc" stroke="#cccccc" stroke-width="1.51"/><path d="M-60,17L-130,96L-27,112Z" fill="#dadada" stroke="#dadada" stroke-width="1.51"/><path d="M-168,390L-69,419L-65,330Z" fill="#8a8a8a" stroke="#8a8a8a" stroke-width="1.51"/><path d="M-70,-92L-175,-33L-60,17Z" fill="#ededed" stroke="#ededed" stroke-width="1.51"/><path d="M-130,96L-149,218L-50,174Z" fill="#c4c4c4" stroke="#c4c4c4" stroke-width="1.51"/><path d="M-175,-33L-130,96L-60,17Z" fill="#e4e4e4" stroke="#e4e4e4" stroke-width="1.51"/><path d="M-127,292L-168,390L-65,330Z" fill="#989898" stroke="#989898" stroke-width="1.51"/><path d="M-112,-148L-175,-33L-70,-92Z" fill="#f6f6f6" stroke="#f6f6f6" stroke-width="1.51"/><path d="M-149,218L-168,390L-127,292Z" fill="#a5a5a5" stroke="#a5a5a5" stroke-width="1.51"/><path d="M-175,-33L-149,218L-130,96Z" fill="#d7d7d7" stroke="#d7d7d7" stroke-width="1.51"/><path d="M-175,-33L-168,390L-149,218Z" fill="#bebebe" stroke="#bebebe" stroke-width="1.51"/></svg>