<svg xmlns="http://www.w3.org/2000/svg" width="1920" height="1080"><path d="M777,1327L163,1345L904,1336Z" fill="#b4752e" stroke="#b4752e" stroke-width="1.51"/><path d="M782,-223L915,-228L1058,-245Z" fill="#ffce87" stroke="#ffce87" stroke-width="1.51"/><path d="M545,-229L782,-223L1058,-245Z" fill="#ffd78e" stroke="#ffd78e" stroke-width="1.51"/><path d="M1058,-245L1201,-238L1475,-230Z" fill="#ffb87b" stroke="#ffb87b" stroke-width="1.51"/><path d="M1752,1298L1532,1336L1894,1285Z" fill="#913405" stroke="#913405" stroke-width="1.51"/><path d="M1741,-211L1904,-172L2059,-183Z" fill="#d09568" stroke="#d09568" stroke-width="1.51"/><path d="M2064,276L1969,353L2122,441Z" fill="#ba7327" stroke="#ba7327" stroke-width="1.51"/><path d="M2095,511L2099,685L2122,441Z" fill="#b45e16" stroke="#b45e16" stroke-width="1.51"/><path d="M1988,1019L2080,1153L2131,992Z" fill="#933505" stroke="#933505" stroke-width="1.51"/><path d="M2086,848L1975,874L2131,992Z" fill="#a33f07" stroke="#a33f07" stroke-width="1.51"/><path d="M1975,874L1988,1019L2131,992Z" fill="#a23b05" stroke="#a23b05" stroke-width="1.51"/><path d="M2099,685L2086,848L2131,992Z" fill="#a44309" stroke="#a44309" stroke-width="1.51"/><path d="M2080,1153L2102,1252L2131,992Z" fill="#872f06" stroke="#872f06" stroke-width="1.51"/><path d="M2122,441L2099,685L2131,992Z" fill="#ac4e0f" stroke="#ac4e0f" stroke-width="1.51"/><path d="M2131,-54L1913,-14L2139,33Z" fill="#bd8a56" stroke="#bd8a56" stroke-width="1.51"/><path d="M1913,-14L1969,129L2139,33Z" fill="#c28a50" stroke="#c28a50" stroke-width="1.51"/><path d="M1969,129L2064,276L2139,33Z" fill="#bc8345" stroke="#bc8345" stroke-width="1.51"/><path d="M2064,276L2122,441L2139,33Z" fill="#b67a36" stroke="#b67a36" stroke-width="1.51"/><path d="M2122,441L2131,992L2139,33Z" fill="#b2631b" stroke="#b2631b" stroke-width="1.51"/><path d="M2095,511L1943,686L2099,685Z" fill="#b65812" stroke="#b65812" stroke-width="1.51"/><path d="M2059,-183L1913,-14L2131,-54Z" fill="#c18e5d" stroke="#c18e5d" stroke-width="1.51"/><path d="M1943,686L2086,848L2099,685Z" fill="#b14d0d" stroke="#b14d0d" stroke-width="1.51"/><path d="M1969,353L2095,511L2122,441Z" fill="#b96b20" stroke="#b96b20" stroke-width="1.51"/><path d="M1969,129L1975,268L2064,276Z" fill="#c07f3a" stroke="#c07f3a" stroke-width="1.51"/><path d="M1943,686L1975,874L2086,848Z" fill="#b1490a" stroke="#b1490a" stroke-width="1.51"/><path d="M1969,353L1878,503L2095,511Z" fill="#c06b1e" stroke="#c06b1e" stroke-width="1.51"/><path d="M1878,503L1943,686L2095,511Z" fill="#c06015" stroke="#c06015" stroke-width="1.51"/><path d="M2080,1153L1888,1187L2102,1252Z" fill="#862f06" stroke="#862f06" stroke-width="1.51"/><path d="M1888,1187L1894,1285L2102,1252Z" fill="#852e06" stroke="#852e06" stroke-width="1.51"/><path d="M1904,-172L1913,-14L2059,-183Z" fill="#c99261" stroke="#c99261" stroke-width="1.51"/><path d="M1988,1019L1888,1187L2080,1153Z" fill="#923305" stroke="#923305" stroke-width="1.51"/><path d="M1975,268L1969,353L2064,276Z" fill="#bf7a2f" stroke="#bf7a2f" stroke-width="1.51"/><path d="M1969,129L1740,205L1975,268Z" fill="#cb853e" stroke="#cb853e" stroke-width="1.51"/><path d="M1943,686L1761,812L1975,874Z" fill="#bb4d0a" stroke="#bb4d0a" stroke-width="1.51"/><path d="M1975,874L1792,1028L1988,1019Z" fill="#ab3d04" stroke="#ab3d04" stroke-width="1.51"/><path d="M1792,1028L1888,1187L1988,1019Z" fill="#a03804" stroke="#a03804" stroke-width="1.51"/><path d="M1821,-12L1763,98L1913,-14Z" fill="#d49154" stroke="#d49154" stroke-width="1.51"/><path d="M1913,-14L1763,98L1969,129Z" fill="#ce8d4f" stroke="#ce8d4f" stroke-width="1.51"/><path d="M1763,98L1740,205L1969,129Z" fill="#d28c47" stroke="#d28c47" stroke-width="1.51"/><path d="M1777,393L1878,503L1969,353Z" fill="#ca7321" stroke="#ca7321" stroke-width="1.51"/><path d="M1777,393L1969,353L1975,268Z" fill="#c87a28" stroke="#c87a28" stroke-width="1.51"/><path d="M1740,205L1777,393L1975,268Z" fill="#d08130" stroke="#d08130" stroke-width="1.51"/><path d="M1761,812L1792,1028L1975,874Z" fill="#b74505" stroke="#b74505" stroke-width="1.51"/><path d="M1878,503L1774,545L1943,686Z" fill="#c96313" stroke="#c96313" stroke-width="1.51"/><path d="M1774,545L1753,641L1943,686Z" fill="#ca6012" stroke="#ca6012" stroke-width="1.51"/><path d="M1792,1028L1835,1185L1888,1187Z" fill="#9e3604" stroke="#9e3604" stroke-width="1.51"/><path d="M1904,-172L1821,-12L1913,-14Z" fill="#d0945c" stroke="#d0945c" stroke-width="1.51"/><path d="M1753,641L1761,812L1943,686Z" fill="#c7570d" stroke="#c7570d" stroke-width="1.51"/><path d="M1888,1187L1835,1185L1894,1285Z" fill="#903205" stroke="#903205" stroke-width="1.51"/><path d="M1741,-211L1821,-12L1904,-172Z" fill="#d69764" stroke="#d69764" stroke-width="1.51"/><path d="M1835,1185L1752,1298L1894,1285Z" fill="#8f3205" stroke="#8f3205" stroke-width="1.51"/><path d="M1777,393L1774,545L1878,503Z" fill="#cf6f1c" stroke="#cf6f1c" stroke-width="1.51"/><path d="M1740,205L1682,363L1777,393Z" fill="#d8832c" stroke="#d8832c" stroke-width="1.51"/><path d="M1761,812L1647,968L1792,1028Z" fill="#be4603" stroke="#be4603" stroke-width="1.51"/><path d="M1741,-211L1596,-156L1821,-12Z" fill="#e09c64" stroke="#e09c64" stroke-width="1.51"/><path d="M1596,-156L1579,-21L1821,-12Z" fill="#e49d5f" stroke="#e49d5f" stroke-width="1.51"/><path d="M1792,1028L1633,1103L1835,1185Z" fill="#a83b04" stroke="#a83b04" stroke-width="1.51"/><path d="M1633,1103L1752,1298L1835,1185Z" fill="#9e3705" stroke="#9e3705" stroke-width="1.51"/><path d="M1614,79L1763,98L1821,-12Z" fill="#dc9552" stroke="#dc9552" stroke-width="1.51"/><path d="M1579,-21L1614,79L1821,-12Z" fill="#e29a57" stroke="#e29a57" stroke-width="1.51"/><path d="M1633,1103L1590,1251L1752,1298Z" fill="#a23a04" stroke="#a23a04" stroke-width="1.51"/><path d="M1753,641L1626,696L1761,812Z" fill="#d05b0c" stroke="#d05b0c" stroke-width="1.51"/><path d="M1682,363L1606,562L1774,545Z" fill="#da741b" stroke="#da741b" stroke-width="1.51"/><path d="M1682,363L1774,545L1777,393Z" fill="#d67720" stroke="#d67720" stroke-width="1.51"/><path d="M1647,968L1633,1103L1792,1028Z" fill="#b64103" stroke="#b64103" stroke-width="1.51"/><path d="M1475,-230L1596,-156L1741,-211Z" fill="#eba36d" stroke="#eba36d" stroke-width="1.51"/><path d="M1606,562L1753,641L1774,545Z" fill="#d66914" stroke="#d66914" stroke-width="1.51"/><path d="M1585,808L1647,968L1761,812Z" fill="#ca5006" stroke="#ca5006" stroke-width="1.51"/><path d="M1610,209L1682,363L1740,205Z" fill="#de8a37" stroke="#de8a37" stroke-width="1.51"/><path d="M1590,1251L1532,1336L1752,1298Z" fill="#9b3806" stroke="#9b3806" stroke-width="1.51"/><path d="M1626,696L1585,808L1761,812Z" fill="#d1580a" stroke="#d1580a" stroke-width="1.51"/><path d="M1614,79L1740,205L1763,98Z" fill="#dd934b" stroke="#dd934b" stroke-width="1.51"/><path d="M1614,79L1610,209L1740,205Z" fill="#e29246" stroke="#e29246" stroke-width="1.51"/><path d="M1606,562L1626,696L1753,641Z" fill="#d86611" stroke="#d86611" stroke-width="1.51"/><path d="M-18,-189L114,-180L545,-229Z" fill="#fff4bd" stroke="#fff4bd" stroke-width="1.51"/><path d="M1201,-238L1339,-209L1475,-230Z" fill="#fbb377" stroke="#fbb377" stroke-width="1.51"/><path d="M1610,209L1490,397L1682,363Z" fill="#e4892c" stroke="#e4892c" stroke-width="1.51"/><path d="M1490,397L1606,562L1682,363Z" fill="#e37d20" stroke="#e37d20" stroke-width="1.51"/><path d="M1448,232L1490,397L1610,209Z" fill="#eb9035" stroke="#eb9035" stroke-width="1.51"/><path d="M1495,1095L1590,1251L1633,1103Z" fill="#b24003" stroke="#b24003" stroke-width="1.51"/><path d="M1585,808L1468,881L1647,968Z" fill="#d05204" stroke="#d05204" stroke-width="1.51"/><path d="M1468,881L1510,1006L1647,968Z" fill="#cd4d02" stroke="#cd4d02" stroke-width="1.51"/><path d="M1510,1006L1633,1103L1647,968Z" fill="#c04603" stroke="#c04603" stroke-width="1.51"/><path d="M1490,397L1447,530L1606,562Z" fill="#e87b1c" stroke="#e87b1c" stroke-width="1.51"/><path d="M1522,56L1610,209L1614,79Z" fill="#e8994e" stroke="#e8994e" stroke-width="1.51"/><path d="M1579,-21L1522,56L1614,79Z" fill="#eb9d56" stroke="#eb9d56" stroke-width="1.51"/><path d="M1606,562L1443,651L1626,696Z" fill="#e16a11" stroke="#e16a11" stroke-width="1.51"/><path d="M1510,1006L1495,1095L1633,1103Z" fill="#be4603" stroke="#be4603" stroke-width="1.51"/><path d="M1517,-25L1579,-21L1596,-156Z" fill="#eda361" stroke="#eda361" stroke-width="1.51"/><path d="M1443,651L1585,808L1626,696Z" fill="#de620c" stroke="#de620c" stroke-width="1.51"/><path d="M1522,56L1448,232L1610,209Z" fill="#ec9848" stroke="#ec9848" stroke-width="1.51"/><path d="M1447,530L1443,651L1606,562Z" fill="#e77316" stroke="#e77316" stroke-width="1.51"/><path d="M1475,-230L1517,-25L1596,-156Z" fill="#f0a669" stroke="#f0a669" stroke-width="1.51"/><path d="M1517,-25L1522,56L1579,-21Z" fill="#eda15b" stroke="#eda15b" stroke-width="1.51"/><path d="M1443,651L1468,881L1585,808Z" fill="#dd5f0b" stroke="#dd5f0b" stroke-width="1.51"/><path d="M1495,1095L1532,1336L1590,1251Z" fill="#aa3f05" stroke="#aa3f05" stroke-width="1.51"/><path d="M575,1293L163,1345L777,1327Z" fill="#b77b39" stroke="#b77b39" stroke-width="1.51"/><path d="M1443,651L1378,653L1468,881Z" fill="#e46810" stroke="#e46810" stroke-width="1.51"/><path d="M1290,1095L1280,1339L1495,1095Z" fill="#bb4c08" stroke="#bb4c08" stroke-width="1.51"/><path d="M1475,-230L1339,-209L1517,-25Z" fill="#f4ab6d" stroke="#f4ab6d" stroke-width="1.51"/><path d="M1339,-209L1294,-63L1517,-25Z" fill="#f7ae69" stroke="#f7ae69" stroke-width="1.51"/><path d="M1391,59L1448,232L1522,56Z" fill="#efa051" stroke="#efa051" stroke-width="1.51"/><path d="M1495,1095L1280,1339L1532,1336Z" fill="#ab4308" stroke="#ab4308" stroke-width="1.51"/><path d="M1018,1301L904,1336L1280,1339Z" fill="#b25813" stroke="#b25813" stroke-width="1.51"/><path d="M1517,-25L1391,59L1522,56Z" fill="#f0a359" stroke="#f0a359" stroke-width="1.51"/><path d="M1468,881L1325,933L1510,1006Z" fill="#d35506" stroke="#d35506" stroke-width="1.51"/><path d="M1294,-63L1391,59L1517,-25Z" fill="#f5a960" stroke="#f5a960" stroke-width="1.51"/><path d="M1325,933L1290,1095L1495,1095Z" fill="#cb5207" stroke="#cb5207" stroke-width="1.51"/><path d="M1325,933L1495,1095L1510,1006Z" fill="#ca4f05" stroke="#ca4f05" stroke-width="1.51"/><path d="M1378,653L1283,876L1468,881Z" fill="#e2640e" stroke="#e2640e" stroke-width="1.51"/><path d="M1448,232L1287,385L1490,397Z" fill="#ef922e" stroke="#ef922e" stroke-width="1.51"/><path d="M1287,385L1447,530L1490,397Z" fill="#ee8725" stroke="#ee8725" stroke-width="1.51"/><path d="M1378,653L1443,651L1447,530Z" fill="#ea7417" stroke="#ea7417" stroke-width="1.51"/><path d="M1287,385L1297,531L1447,530Z" fill="#f18622" stroke="#f18622" stroke-width="1.51"/><path d="M1391,59L1293,224L1448,232Z" fill="#f3a04b" stroke="#f3a04b" stroke-width="1.51"/><path d="M1293,224L1287,385L1448,232Z" fill="#f39a3a" stroke="#f39a3a" stroke-width="1.51"/><path d="M1283,876L1325,933L1468,881Z" fill="#db5d0a" stroke="#db5d0a" stroke-width="1.51"/><path d="M1297,531L1378,653L1447,530Z" fill="#ee7b1a" stroke="#ee7b1a" stroke-width="1.51"/><path d="M1190,1191L1280,1339L1290,1095Z" fill="#bb500c" stroke="#bb500c" stroke-width="1.51"/><path d="M1232,860L1283,876L1378,653Z" fill="#e66a11" stroke="#e66a11" stroke-width="1.51"/><path d="M1157,666L1232,860L1378,653Z" fill="#ed7315" stroke="#ed7315" stroke-width="1.51"/><path d="M1294,-63L1209,141L1391,59Z" fill="#f9ad5d" stroke="#f9ad5d" stroke-width="1.51"/><path d="M1209,141L1293,224L1391,59Z" fill="#f7a853" stroke="#f7a853" stroke-width="1.51"/><path d="M1184,-20L1209,141L1294,-63Z" fill="#fcb162" stroke="#fcb162" stroke-width="1.51"/><path d="M1226,1045L1290,1095L1325,933Z" fill="#d2590a" stroke="#d2590a" stroke-width="1.51"/><path d="M1297,531L1157,666L1378,653Z" fill="#f17c1a" stroke="#f17c1a" stroke-width="1.51"/><path d="M1190,556L1157,666L1297,531Z" fill="#f5831e" stroke="#f5831e" stroke-width="1.51"/><path d="M1201,-238L1294,-63L1339,-209Z" fill="#fdb573" stroke="#fdb573" stroke-width="1.51"/><path d="M1155,253L1287,385L1293,224Z" fill="#f8a03c" stroke="#f8a03c" stroke-width="1.51"/><path d="M1287,385L1158,419L1297,531Z" fill="#f79029" stroke="#f79029" stroke-width="1.51"/><path d="M1283,876L1226,1045L1325,933Z" fill="#db5d0a" stroke="#db5d0a" stroke-width="1.51"/><path d="M1131,1259L1018,1301L1280,1339Z" fill="#b35410" stroke="#b35410" stroke-width="1.51"/><path d="M1190,1191L1131,1259L1280,1339Z" fill="#b6510e" stroke="#b6510e" stroke-width="1.51"/><path d="M1232,860L1226,1045L1283,876Z" fill="#de620c" stroke="#de620c" stroke-width="1.51"/><path d="M1155,253L1158,419L1287,385Z" fill="#f89d33" stroke="#f89d33" stroke-width="1.51"/><path d="M1201,-238L1184,-20L1294,-63Z" fill="#feb76f" stroke="#feb76f" stroke-width="1.51"/><path d="M1158,419L1190,556L1297,531Z" fill="#f78c24" stroke="#f78c24" stroke-width="1.51"/><path d="M1226,1045L1190,1191L1290,1095Z" fill="#c9560c" stroke="#c9560c" stroke-width="1.51"/><path d="M1209,141L1155,253L1293,224Z" fill="#faa84a" stroke="#faa84a" stroke-width="1.51"/><path d="M1043,-69L1184,-20L1201,-238Z" fill="#ffbc72" stroke="#ffbc72" stroke-width="1.51"/><path d="M1058,-245L1043,-69L1201,-238Z" fill="#ffc17b" stroke="#ffc17b" stroke-width="1.51"/><path d="M1184,-20L1070,124L1209,141Z" fill="#fdb45e" stroke="#fdb45e" stroke-width="1.51"/><path d="M1054,1024L1190,1191L1226,1045Z" fill="#ce5d0f" stroke="#ce5d0f" stroke-width="1.51"/><path d="M1157,666L1043,854L1232,860Z" fill="#ec7416" stroke="#ec7416" stroke-width="1.51"/><path d="M1054,1024L1226,1045L1232,860Z" fill="#dc630e" stroke="#dc630e" stroke-width="1.51"/><path d="M1043,854L1054,1024L1232,860Z" fill="#e46c13" stroke="#e46c13" stroke-width="1.51"/><path d="M1031,701L1043,854L1157,666Z" fill="#f27d1b" stroke="#f27d1b" stroke-width="1.51"/><path d="M1158,419L1037,514L1190,556Z" fill="#f99228" stroke="#f99228" stroke-width="1.51"/><path d="M1070,124L1155,253L1209,141Z" fill="#fcaf52" stroke="#fcaf52" stroke-width="1.51"/><path d="M1155,253L1012,355L1158,419Z" fill="#faa437" stroke="#faa437" stroke-width="1.51"/><path d="M1054,1024L984,1168L1190,1191Z" fill="#cb6012" stroke="#cb6012" stroke-width="1.51"/><path d="M1043,-69L1070,124L1184,-20Z" fill="#ffbb67" stroke="#ffbb67" stroke-width="1.51"/><path d="M1037,514L1157,666L1190,556Z" fill="#f88a21" stroke="#f88a21" stroke-width="1.51"/><path d="M984,1168L1131,1259L1190,1191Z" fill="#c05b11" stroke="#c05b11" stroke-width="1.51"/><path d="M1070,124L1020,246L1155,253Z" fill="#fdb14f" stroke="#fdb14f" stroke-width="1.51"/><path d="M1020,246L1012,355L1155,253Z" fill="#fdab42" stroke="#fdab42" stroke-width="1.51"/><path d="M1037,514L1031,701L1157,666Z" fill="#f78921" stroke="#f78921" stroke-width="1.51"/><path d="M1012,355L1037,514L1158,419Z" fill="#fc9d30" stroke="#fc9d30" stroke-width="1.51"/><path d="M984,1168L1018,1301L1131,1259Z" fill="#bd5d13" stroke="#bd5d13" stroke-width="1.51"/><path d="M937,534L1031,701L1037,514Z" fill="#fb9226" stroke="#fb9226" stroke-width="1.51"/><path d="M915,-228L921,-86L1043,-69Z" fill="#ffc97a" stroke="#ffc97a" stroke-width="1.51"/><path d="M1031,701L918,729L1043,854Z" fill="#f3811d" stroke="#f3811d" stroke-width="1.51"/><path d="M1043,854L895,983L1054,1024Z" fill="#e47114" stroke="#e47114" stroke-width="1.51"/><path d="M915,-228L1043,-69L1058,-245Z" fill="#ffc77e" stroke="#ffc77e" stroke-width="1.51"/><path d="M837,186L1020,246L1070,124Z" fill="#ffb956" stroke="#ffb956" stroke-width="1.51"/><path d="M832,67L837,186L1070,124Z" fill="#ffc262" stroke="#ffc262" stroke-width="1.51"/><path d="M1043,-69L921,-86L1070,124Z" fill="#ffc16c" stroke="#ffc16c" stroke-width="1.51"/><path d="M921,-86L832,67L1070,124Z" fill="#ffc46a" stroke="#ffc46a" stroke-width="1.51"/><path d="M1012,355L937,534L1037,514Z" fill="#fe9e2f" stroke="#fe9e2f" stroke-width="1.51"/><path d="M885,843L895,983L1043,854Z" fill="#ea7a1a" stroke="#ea7a1a" stroke-width="1.51"/><path d="M895,983L984,1168L1054,1024Z" fill="#d76c15" stroke="#d76c15" stroke-width="1.51"/><path d="M937,534L918,729L1031,701Z" fill="#f98e24" stroke="#f98e24" stroke-width="1.51"/><path d="M918,729L885,843L1043,854Z" fill="#f0801d" stroke="#f0801d" stroke-width="1.51"/><path d="M930,339L937,534L1012,355Z" fill="#ffa736" stroke="#ffa736" stroke-width="1.51"/><path d="M930,339L1012,355L1020,246Z" fill="#feae3f" stroke="#feae3f" stroke-width="1.51"/><path d="M984,1168L904,1336L1018,1301Z" fill="#bc6116" stroke="#bc6116" stroke-width="1.51"/><path d="M845,1195L904,1336L984,1168Z" fill="#c1671a" stroke="#c1671a" stroke-width="1.51"/><path d="M837,186L930,339L1020,246Z" fill="#ffb74c" stroke="#ffb74c" stroke-width="1.51"/><path d="M789,556L918,729L937,534Z" fill="#fb992b" stroke="#fb992b" stroke-width="1.51"/><path d="M895,983L845,1195L984,1168Z" fill="#d16d19" stroke="#d16d19" stroke-width="1.51"/><path d="M789,556L724,662L918,729Z" fill="#fa9a2e" stroke="#fa9a2e" stroke-width="1.51"/><path d="M915,-228L782,-223L921,-86Z" fill="#ffd085" stroke="#ffd085" stroke-width="1.51"/><path d="M703,410L789,556L930,339Z" fill="#ffaf3d" stroke="#ffaf3d" stroke-width="1.51"/><path d="M930,339L789,556L937,534Z" fill="#ffa634" stroke="#ffa634" stroke-width="1.51"/><path d="M716,1169L845,1195L895,983Z" fill="#d1741f" stroke="#d1741f" stroke-width="1.51"/><path d="M837,186L703,410L930,339Z" fill="#ffba49" stroke="#ffba49" stroke-width="1.51"/><path d="M845,1195L777,1327L904,1336Z" fill="#ba691e" stroke="#ba691e" stroke-width="1.51"/><path d="M720,797L885,843L918,729Z" fill="#f38a25" stroke="#f38a25" stroke-width="1.51"/><path d="M717,-117L832,67L921,-86Z" fill="#ffd07a" stroke="#ffd07a" stroke-width="1.51"/><path d="M782,-223L717,-117L921,-86Z" fill="#ffd485" stroke="#ffd485" stroke-width="1.51"/><path d="M724,662L720,797L918,729Z" fill="#f7932b" stroke="#f7932b" stroke-width="1.51"/><path d="M680,937L716,1169L895,983Z" fill="#dd7d23" stroke="#dd7d23" stroke-width="1.51"/><path d="M885,843L680,937L895,983Z" fill="#e98121" stroke="#e98121" stroke-width="1.51"/><path d="M689,197L703,410L837,186Z" fill="#ffc356" stroke="#ffc356" stroke-width="1.51"/><path d="M720,797L680,937L885,843Z" fill="#ee8b28" stroke="#ee8b28" stroke-width="1.51"/><path d="M114,-180L247,-162L545,-229Z" fill="#fff1b6" stroke="#fff1b6" stroke-width="1.51"/><path d="M680,937L629,1009L716,1169Z" fill="#db8329" stroke="#db8329" stroke-width="1.51"/><path d="M717,-117L768,96L832,67Z" fill="#ffd176" stroke="#ffd176" stroke-width="1.51"/><path d="M832,67L768,96L837,186Z" fill="#ffc969" stroke="#ffc969" stroke-width="1.51"/><path d="M716,1169L777,1327L845,1195Z" fill="#c27022" stroke="#c27022" stroke-width="1.51"/><path d="M768,96L689,197L837,186Z" fill="#ffca66" stroke="#ffca66" stroke-width="1.51"/><path d="M689,197L626,246L703,410Z" fill="#ffc657" stroke="#ffc657" stroke-width="1.51"/><path d="M717,-117L570,130L768,96Z" fill="#ffd679" stroke="#ffd679" stroke-width="1.51"/><path d="M716,1169L575,1293L777,1327Z" fill="#be7527" stroke="#be7527" stroke-width="1.51"/><path d="M568,493L724,662L789,556Z" fill="#fda939" stroke="#fda939" stroke-width="1.51"/><path d="M703,410L568,493L789,556Z" fill="#feb240" stroke="#feb240" stroke-width="1.51"/><path d="M539,-90L570,130L717,-117Z" fill="#ffdd87" stroke="#ffdd87" stroke-width="1.51"/><path d="M545,-229L717,-117L782,-223Z" fill="#ffde90" stroke="#ffde90" stroke-width="1.51"/><path d="M275,1276L163,1345L575,1293Z" fill="#bb8449" stroke="#bb8449" stroke-width="1.51"/><path d="M570,130L689,197L768,96Z" fill="#ffd16e" stroke="#ffd16e" stroke-width="1.51"/><path d="M626,246L534,369L703,410Z" fill="#fec553" stroke="#fec553" stroke-width="1.51"/><path d="M629,1009L554,1125L716,1169Z" fill="#d4822c" stroke="#d4822c" stroke-width="1.51"/><path d="M545,-229L539,-90L717,-117Z" fill="#ffe294" stroke="#ffe294" stroke-width="1.51"/><path d="M563,864L680,937L720,797Z" fill="#ed912f" stroke="#ed912f" stroke-width="1.51"/><path d="M542,648L563,864L720,797Z" fill="#f59c38" stroke="#f59c38" stroke-width="1.51"/><path d="M568,493L542,648L724,662Z" fill="#fdab40" stroke="#fdab40" stroke-width="1.51"/><path d="M542,648L720,797L724,662Z" fill="#f89f35" stroke="#f89f35" stroke-width="1.51"/><path d="M554,1125L575,1293L716,1169Z" fill="#c87d2e" stroke="#c87d2e" stroke-width="1.51"/><path d="M534,369L568,493L703,410Z" fill="#ffbe4e" stroke="#ffbe4e" stroke-width="1.51"/><path d="M570,130L626,246L689,197Z" fill="#ffd06a" stroke="#ffd06a" stroke-width="1.51"/><path d="M563,864L629,1009L680,937Z" fill="#e88d30" stroke="#e88d30" stroke-width="1.51"/><path d="M247,-162L398,-156L545,-229Z" fill="#ffedad" stroke="#ffedad" stroke-width="1.51"/><path d="M542,648L452,793L563,864Z" fill="#f7a143" stroke="#f7a143" stroke-width="1.51"/><path d="M483,540L542,648L568,493Z" fill="#ffb34b" stroke="#ffb34b" stroke-width="1.51"/><path d="M539,-90L482,93L570,130Z" fill="#ffde87" stroke="#ffde87" stroke-width="1.51"/><path d="M490,1241L275,1276L575,1293Z" fill="#bf8140" stroke="#bf8140" stroke-width="1.51"/><path d="M554,1125L490,1241L575,1293Z" fill="#c57f36" stroke="#c57f36" stroke-width="1.51"/><path d="M570,130L448,263L626,246Z" fill="#ffd370" stroke="#ffd370" stroke-width="1.51"/><path d="M448,263L534,369L626,246Z" fill="#ffcd64" stroke="#ffcd64" stroke-width="1.51"/><path d="M563,864L428,963L629,1009Z" fill="#e99039" stroke="#e99039" stroke-width="1.51"/><path d="M428,963L554,1125L629,1009Z" fill="#de8b39" stroke="#de8b39" stroke-width="1.51"/><path d="M404,-38L482,93L539,-90Z" fill="#ffe393" stroke="#ffe393" stroke-width="1.51"/><path d="M454,663L452,793L542,648Z" fill="#faa84a" stroke="#faa84a" stroke-width="1.51"/><path d="M398,-156L539,-90L545,-229Z" fill="#ffe7a0" stroke="#ffe7a0" stroke-width="1.51"/><path d="M428,963L403,1128L554,1125Z" fill="#da8c40" stroke="#da8c40" stroke-width="1.51"/><path d="M534,369L483,540L568,493Z" fill="#ffbd53" stroke="#ffbd53" stroke-width="1.51"/><path d="M482,93L448,263L570,130Z" fill="#ffd97d" stroke="#ffd97d" stroke-width="1.51"/><path d="M395,393L483,540L534,369Z" fill="#ffc45c" stroke="#ffc45c" stroke-width="1.51"/><path d="M452,793L428,963L563,864Z" fill="#ef9943" stroke="#ef9943" stroke-width="1.51"/><path d="M483,540L454,663L542,648Z" fill="#fdb04d" stroke="#fdb04d" stroke-width="1.51"/><path d="M403,1128L490,1241L554,1125Z" fill="#cd853d" stroke="#cd853d" stroke-width="1.51"/><path d="M398,-156L404,-38L539,-90Z" fill="#ffe99f" stroke="#ffe99f" stroke-width="1.51"/><path d="M448,263L395,393L534,369Z" fill="#ffcd66" stroke="#ffcd66" stroke-width="1.51"/><path d="M332,872L428,963L452,793Z" fill="#ef9e4c" stroke="#ef9e4c" stroke-width="1.51"/><path d="M276,140L448,263L482,93Z" fill="#ffde87" stroke="#ffde87" stroke-width="1.51"/><path d="M314,582L454,663L483,540Z" fill="#ffb657" stroke="#ffb657" stroke-width="1.51"/><path d="M395,393L314,582L483,540Z" fill="#ffc05e" stroke="#ffc05e" stroke-width="1.51"/><path d="M403,1128L275,1276L490,1241Z" fill="#c78746" stroke="#c78746" stroke-width="1.51"/><path d="M339,1132L275,1276L403,1128Z" fill="#cc8b4a" stroke="#cc8b4a" stroke-width="1.51"/><path d="M404,-38L276,140L482,93Z" fill="#ffe495" stroke="#ffe495" stroke-width="1.51"/><path d="M294,997L339,1132L403,1128Z" fill="#d9914c" stroke="#d9914c" stroke-width="1.51"/><path d="M294,997L403,1128L428,963Z" fill="#e0934a" stroke="#e0934a" stroke-width="1.51"/><path d="M276,140L259,192L448,263Z" fill="#ffde89" stroke="#ffde89" stroke-width="1.51"/><path d="M257,700L332,872L452,793Z" fill="#f6a855" stroke="#f6a855" stroke-width="1.51"/><path d="M257,700L452,793L454,663Z" fill="#faac54" stroke="#faac54" stroke-width="1.51"/><path d="M314,582L257,700L454,663Z" fill="#fdb55c" stroke="#fdb55c" stroke-width="1.51"/><path d="M253,364L395,393L448,263Z" fill="#ffd270" stroke="#ffd270" stroke-width="1.51"/><path d="M259,192L253,364L448,263Z" fill="#ffd97d" stroke="#ffd97d" stroke-width="1.51"/><path d="M398,-156L327,-110L404,-38Z" fill="#ffeca7" stroke="#ffeca7" stroke-width="1.51"/><path d="M332,872L294,997L428,963Z" fill="#eb9b4e" stroke="#eb9b4e" stroke-width="1.51"/><path d="M253,364L186,486L314,582Z" fill="#ffc86d" stroke="#ffc86d" stroke-width="1.51"/><path d="M253,364L314,582L395,393Z" fill="#ffca6a" stroke="#ffca6a" stroke-width="1.51"/><path d="M247,-162L327,-110L398,-156Z" fill="#ffefb0" stroke="#ffefb0" stroke-width="1.51"/><path d="M327,-110L276,140L404,-38Z" fill="#ffeaa0" stroke="#ffeaa0" stroke-width="1.51"/><path d="M151,-51L276,140L327,-110Z" fill="#ffeda7" stroke="#ffeda7" stroke-width="1.51"/><path d="M257,700L166,718L332,872Z" fill="#f9ad5d" stroke="#f9ad5d" stroke-width="1.51"/><path d="M97,1095L275,1276L339,1132Z" fill="#cf8f52" stroke="#cf8f52" stroke-width="1.51"/><path d="M294,997L167,1001L339,1132Z" fill="#df9652" stroke="#df9652" stroke-width="1.51"/><path d="M167,1001L97,1095L339,1132Z" fill="#dc9656" stroke="#dc9656" stroke-width="1.51"/><path d="M247,-162L151,-51L327,-110Z" fill="#fff1b2" stroke="#fff1b2" stroke-width="1.51"/><path d="M167,1001L294,997L332,872Z" fill="#eb9c54" stroke="#eb9c54" stroke-width="1.51"/><path d="M87,801L167,1001L332,872Z" fill="#f0a45c" stroke="#f0a45c" stroke-width="1.51"/><path d="M166,718L87,801L332,872Z" fill="#f8ac5f" stroke="#f8ac5f" stroke-width="1.51"/><path d="M151,-51L118,106L276,140Z" fill="#ffeca5" stroke="#ffeca5" stroke-width="1.51"/><path d="M186,486L257,700L314,582Z" fill="#ffbd65" stroke="#ffbd65" stroke-width="1.51"/><path d="M186,486L166,718L257,700Z" fill="#ffba67" stroke="#ffba67" stroke-width="1.51"/><path d="M89,209L253,364L259,192Z" fill="#ffdf89" stroke="#ffdf89" stroke-width="1.51"/><path d="M97,1095L163,1345L275,1276Z" fill="#c68d55" stroke="#c68d55" stroke-width="1.51"/><path d="M118,106L259,192L276,140Z" fill="#ffe698" stroke="#ffe698" stroke-width="1.51"/><path d="M85,389L186,486L253,364Z" fill="#ffd178" stroke="#ffd178" stroke-width="1.51"/><path d="M89,209L85,389L253,364Z" fill="#ffdb82" stroke="#ffdb82" stroke-width="1.51"/><path d="M118,106L89,209L259,192Z" fill="#ffe799" stroke="#ffe799" stroke-width="1.51"/><path d="M114,-180L151,-51L247,-162Z" fill="#fff4b9" stroke="#fff4b9" stroke-width="1.51"/><path d="M-6,639L166,718L186,486Z" fill="#ffbf6e" stroke="#ffbf6e" stroke-width="1.51"/><path d="M-60,561L-6,639L21,416Z" fill="#ffc97a" stroke="#ffc97a" stroke-width="1.51"/><path d="M97,1095L-24,1330L163,1345Z" fill="#c48f5b" stroke="#c48f5b" stroke-width="1.51"/><path d="M87,801L-33,960L167,1001Z" fill="#f0a563" stroke="#f0a563" stroke-width="1.51"/><path d="M85,389L21,416L186,486Z" fill="#ffd27c" stroke="#ffd27c" stroke-width="1.51"/><path d="M21,416L-6,639L186,486Z" fill="#ffcb77" stroke="#ffcb77" stroke-width="1.51"/><path d="M-40,-8L118,106L151,-51Z" fill="#fff2b1" stroke="#fff2b1" stroke-width="1.51"/><path d="M-33,960L97,1095L167,1001Z" fill="#e49e60" stroke="#e49e60" stroke-width="1.51"/><path d="M-6,639L87,801L166,718Z" fill="#fdb66b" stroke="#fdb66b" stroke-width="1.51"/><path d="M-56,1110L-24,1330L97,1095Z" fill="#d09461" stroke="#d09461" stroke-width="1.51"/><path d="M-18,-189L-40,-8L114,-180Z" fill="#fff8c3" stroke="#fff8c3" stroke-width="1.51"/><path d="M-40,-8L3,118L118,106Z" fill="#fff0af" stroke="#fff0af" stroke-width="1.51"/><path d="M114,-180L-40,-8L151,-51Z" fill="#fff6bb" stroke="#fff6bb" stroke-width="1.51"/><path d="M-51,842L-33,960L87,801Z" fill="#f4ab6a" stroke="#f4ab6a" stroke-width="1.51"/><path d="M-52,275L85,389L89,209Z" fill="#ffe18f" stroke="#ffe18f" stroke-width="1.51"/><path d="M3,118L89,209L118,106Z" fill="#ffeba4" stroke="#ffeba4" stroke-width="1.51"/><path d="M-52,275L21,416L85,389Z" fill="#ffdb87" stroke="#ffdb87" stroke-width="1.51"/><path d="M-6,639L-51,842L87,801Z" fill="#fcb46e" stroke="#fcb46e" stroke-width="1.51"/><path d="M-33,960L-56,1110L97,1095Z" fill="#e09d64" stroke="#e09d64" stroke-width="1.51"/><path d="M3,118L-52,275L89,209Z" fill="#ffe89e" stroke="#ffe89e" stroke-width="1.51"/><path d="M-56,1110L-125,1111L-24,1330Z" fill="#d09566" stroke="#d09566" stroke-width="1.51"/><path d="M-180,-69L-40,-8L-18,-189Z" fill="#fff9c7" stroke="#fff9c7" stroke-width="1.51"/><path d="M-137,646L-51,842L-6,639Z" fill="#ffba75" stroke="#ffba75" stroke-width="1.51"/><path d="M-40,-8L-120,40L3,118Z" fill="#fff2b6" stroke="#fff2b6" stroke-width="1.51"/><path d="M-159,508L-60,561L21,416Z" fill="#ffce82" stroke="#ffce82" stroke-width="1.51"/><path d="M-157,386L-159,508L21,416Z" fill="#ffd589" stroke="#ffd589" stroke-width="1.51"/><path d="M-52,275L-157,386L21,416Z" fill="#ffdc8d" stroke="#ffdc8d" stroke-width="1.51"/><path d="M-125,1111L-203,1317L-24,1330Z" fill="#c69268" stroke="#c69268" stroke-width="1.51"/><path d="M-188,254L-52,275L3,118Z" fill="#ffe8a3" stroke="#ffe8a3" stroke-width="1.51"/><path d="M-120,40L-188,254L3,118Z" fill="#ffeeb0" stroke="#ffeeb0" stroke-width="1.51"/><path d="M-125,1111L-56,1110L-33,960Z" fill="#e09d68" stroke="#e09d68" stroke-width="1.51"/><path d="M-196,-158L-180,-69L-18,-189Z" fill="#fffacf" stroke="#fffacf" stroke-width="1.51"/><path d="M-60,561L-137,646L-6,639Z" fill="#ffc27a" stroke="#ffc27a" stroke-width="1.51"/><path d="M-137,646L-151,869L-51,842Z" fill="#fbb375" stroke="#fbb375" stroke-width="1.51"/><path d="M-163,939L-125,1111L-33,960Z" fill="#e8a16c" stroke="#e8a16c" stroke-width="1.51"/><path d="M-51,842L-151,869L-33,960Z" fill="#f4aa6e" stroke="#f4aa6e" stroke-width="1.51"/><path d="M-151,869L-163,939L-33,960Z" fill="#f2a86f" stroke="#f2a86f" stroke-width="1.51"/><path d="M-180,-69L-120,40L-40,-8Z" fill="#fff6c1" stroke="#fff6c1" stroke-width="1.51"/><path d="M-188,254L-157,386L-52,275Z" fill="#ffe298" stroke="#ffe298" stroke-width="1.51"/><path d="M-159,508L-137,646L-60,561Z" fill="#ffc880" stroke="#ffc880" stroke-width="1.51"/><path d="M-180,-69L-188,254L-120,40Z" fill="#fff2bb" stroke="#fff2bb" stroke-width="1.51"/><path d="M-163,939L-203,1317L-125,1111Z" fill="#d99a6d" stroke="#d99a6d" stroke-width="1.51"/><path d="M-159,508L-151,869L-137,646Z" fill="#ffbe7d" stroke="#ffbe7d" stroke-width="1.51"/><path d="M-159,508L-163,939L-151,869Z" fill="#fdb579" stroke="#fdb579" stroke-width="1.51"/><path d="M-188,254L-163,939L-159,508Z" fill="#ffc883" stroke="#ffc883" stroke-width="1.51"/><path d="M-188,254L-159,508L-157,386Z" fill="#ffdb92" stroke="#ffdb92" stroke-width="1.51"/><path d="M-188,254L-203,1317L-163,939Z" fill="#f8b077" stroke="#f8b077" stroke-width="1.51"/><path d="M-196,-158L-188,254L-180,-69Z" fill="#fff6c4" stroke="#fff6c4" stroke-width="1.51"/><path d="M-196,-158L-203,1317L-188,254Z" fill="#ffd38d" stroke="#ffd38d" stroke-width="1.51"/></svg>