<svg xmlns="http://www.w3.org/2000/svg" width="1920" height="300"><path d="M-112,-148L72,-135L374,-134Z" fill="#87785c" stroke="#87785c" stroke-width="1.51"/><path d="M299,430L35,427L503,448Z" fill="#706038" stroke="#706038" stroke-width="1.51"/><path d="M-112,-148L374,-134L518,-141Z" fill="#937e54" stroke="#937e54" stroke-width="1.51"/><path d="M-112,-148L518,-141L1198,-148Z" fill="#9b804d" stroke="#9b804d" stroke-width="1.51"/><path d="M518,-141L937,-134L1198,-148Z" fill="#9c7c48" stroke="#9c7c48" stroke-width="1.51"/><path d="M1038,411L683,443L1232,433Z" fill="#7d6235" stroke="#7d6235" stroke-width="1.51"/><path d="M1198,-148L1455,-115L1525,-117Z" fill="#b3a38e" stroke="#b3a38e" stroke-width="1.51"/><path d="M683,443L503,448L1628,444Z" fill="#6f5526" stroke="#6f5526" stroke-width="1.51"/><path d="M1232,433L683,443L1628,444Z" fill="#7e6a4d" stroke="#7e6a4d" stroke-width="1.51"/><path d="M1450,423L1232,433L1628,444Z" fill="#8c857b" stroke="#8c857b" stroke-width="1.51"/><path d="M1727,-94L1835,-87L1960,-99Z" fill="#827762" stroke="#827762" stroke-width="1.51"/><path d="M1854,415L1628,444L1963,440Z" fill="#575755" stroke="#575755" stroke-width="1.51"/><path d="M1974,101L2038,193L2054,75Z" fill="#74592a" stroke="#74592a" stroke-width="1.51"/><path d="M1198,-148L1525,-117L2071,-126Z" fill="#a9a39b" stroke="#a9a39b" stroke-width="1.51"/><path d="M1727,-94L1960,-99L2071,-126Z" fill="#6e6656" stroke="#6e6656" stroke-width="1.51"/><path d="M1525,-117L1727,-94L2071,-126Z" fill="#898273" stroke="#898273" stroke-width="1.51"/><path d="M2050,-43L2054,75L2071,-126Z" fill="#67562d" stroke="#67562d" stroke-width="1.51"/><path d="M1993,311L2071,394L2083,300Z" fill="#6f706e" stroke="#6f706e" stroke-width="1.51"/><path d="M2038,193L1993,311L2083,300Z" fill="#837a6c" stroke="#837a6c" stroke-width="1.51"/><path d="M2054,75L2038,193L2083,300Z" fill="#735d3a" stroke="#735d3a" stroke-width="1.51"/><path d="M2071,-126L2054,75L2083,300Z" fill="#6a5323" stroke="#6a5323" stroke-width="1.51"/><path d="M2050,-43L1937,18L2054,75Z" fill="#76612f" stroke="#76612f" stroke-width="1.51"/><path d="M1960,-99L2050,-43L2071,-126Z" fill="#5d543e" stroke="#5d543e" stroke-width="1.51"/><path d="M1993,311L1963,440L2071,394Z" fill="#565755" stroke="#565755" stroke-width="1.51"/><path d="M1936,238L1993,311L2038,193Z" fill="#8a7d69" stroke="#8a7d69" stroke-width="1.51"/><path d="M1937,18L1974,101L2054,75Z" fill="#7b6332" stroke="#7b6332" stroke-width="1.51"/><path d="M1960,-99L1937,18L2050,-43Z" fill="#73633d" stroke="#73633d" stroke-width="1.51"/><path d="M1974,101L1936,238L2038,193Z" fill="#816841" stroke="#816841" stroke-width="1.51"/><path d="M1728,401L1628,444L1854,415Z" fill="#6f706e" stroke="#6f706e" stroke-width="1.51"/><path d="M1847,334L1854,415L1963,440Z" fill="#626361" stroke="#626361" stroke-width="1.51"/><path d="M1827,125L1936,238L1974,101Z" fill="#8c6e40" stroke="#8c6e40" stroke-width="1.51"/><path d="M1847,334L1963,440L1993,311Z" fill="#727371" stroke="#727371" stroke-width="1.51"/><path d="M1936,238L1847,334L1993,311Z" fill="#9d9993" stroke="#9d9993" stroke-width="1.51"/><path d="M1827,125L1838,217L1936,238Z" fill="#9d8461" stroke="#9d8461" stroke-width="1.51"/><path d="M1853,-41L1937,18L1960,-99Z" fill="#827049" stroke="#827049" stroke-width="1.51"/><path d="M1937,18L1827,125L1974,101Z" fill="#8b713f" stroke="#8b713f" stroke-width="1.51"/><path d="M1835,-87L1853,-41L1960,-99Z" fill="#7e7257" stroke="#7e7257" stroke-width="1.51"/><path d="M1838,217L1847,334L1936,238Z" fill="#a4998a" stroke="#a4998a" stroke-width="1.51"/><path d="M1853,-41L1827,125L1937,18Z" fill="#957c48" stroke="#957c48" stroke-width="1.51"/><path d="M1525,-117L1633,-81L1727,-94Z" fill="#aea28d" stroke="#aea28d" stroke-width="1.51"/><path d="M1827,125L1744,196L1838,217Z" fill="#a88c64" stroke="#a88c64" stroke-width="1.51"/><path d="M1838,217L1740,280L1847,334Z" fill="#b4aca1" stroke="#b4aca1" stroke-width="1.51"/><path d="M1761,68L1827,125L1853,-41Z" fill="#a18753" stroke="#a18753" stroke-width="1.51"/><path d="M1739,-5L1761,68L1853,-41Z" fill="#a88f5a" stroke="#a88f5a" stroke-width="1.51"/><path d="M1847,334L1728,401L1854,415Z" fill="#7b7c7a" stroke="#7b7c7a" stroke-width="1.51"/><path d="M1835,-87L1739,-5L1853,-41Z" fill="#98855e" stroke="#98855e" stroke-width="1.51"/><path d="M1740,280L1728,401L1847,334Z" fill="#a6a6a4" stroke="#a6a6a4" stroke-width="1.51"/><path d="M1727,-94L1739,-5L1835,-87Z" fill="#9b8b6b" stroke="#9b8b6b" stroke-width="1.51"/><path d="M1744,196L1740,280L1838,217Z" fill="#b7a48a" stroke="#b7a48a" stroke-width="1.51"/><path d="M1761,68L1744,196L1827,125Z" fill="#a98957" stroke="#a98957" stroke-width="1.51"/><path d="M1665,330L1728,401L1740,280Z" fill="#b4b4b2" stroke="#b4b4b2" stroke-width="1.51"/><path d="M1663,234L1740,280L1744,196Z" fill="#c4b29a" stroke="#c4b29a" stroke-width="1.51"/><path d="M1739,-5L1669,-4L1761,68Z" fill="#b59b66" stroke="#b59b66" stroke-width="1.51"/><path d="M1669,-4L1614,105L1761,68Z" fill="#bea26d" stroke="#bea26d" stroke-width="1.51"/><path d="M1614,105L1744,196L1761,68Z" fill="#b99866" stroke="#b99866" stroke-width="1.51"/><path d="M1727,-94L1669,-4L1739,-5Z" fill="#b09b6f" stroke="#b09b6f" stroke-width="1.51"/><path d="M1614,105L1663,234L1744,196Z" fill="#c5a77e" stroke="#c5a77e" stroke-width="1.51"/><path d="M1633,-81L1669,-4L1727,-94Z" fill="#af9e7c" stroke="#af9e7c" stroke-width="1.51"/><path d="M1663,234L1665,330L1740,280Z" fill="#cfc7bc" stroke="#cfc7bc" stroke-width="1.51"/><path d="M1665,330L1628,444L1728,401Z" fill="#919290" stroke="#919290" stroke-width="1.51"/><path d="M1550,407L1450,423L1628,444Z" fill="#949492" stroke="#949492" stroke-width="1.51"/><path d="M1614,105L1519,232L1663,234Z" fill="#d8bb95" stroke="#d8bb95" stroke-width="1.51"/><path d="M1519,232L1535,331L1663,234Z" fill="#e8dbcc" stroke="#e8dbcc" stroke-width="1.51"/><path d="M1550,407L1628,444L1665,330Z" fill="#9c9d9b" stroke="#9c9d9b" stroke-width="1.51"/><path d="M1535,331L1550,407L1665,330Z" fill="#c1c0be" stroke="#c1c0be" stroke-width="1.51"/><path d="M1663,234L1535,331L1665,330Z" fill="#e0dcd7" stroke="#e0dcd7" stroke-width="1.51"/><path d="M1633,-81L1572,-29L1669,-4Z" fill="#c2ac81" stroke="#c2ac81" stroke-width="1.51"/><path d="M1572,-29L1614,105L1669,-4Z" fill="#cdb17b" stroke="#cdb17b" stroke-width="1.51"/><path d="M1311,410L1232,433L1450,423Z" fill="#918472" stroke="#918472" stroke-width="1.51"/><path d="M1544,97L1519,232L1614,105Z" fill="#dbb683" stroke="#dbb683" stroke-width="1.51"/><path d="M1572,-29L1544,97L1614,105Z" fill="#d7b782" stroke="#d7b782" stroke-width="1.51"/><path d="M1525,-117L1572,-29L1633,-81Z" fill="#c1b093" stroke="#c1b093" stroke-width="1.51"/><path d="M1525,-117L1455,-115L1572,-29Z" fill="#c5b59a" stroke="#c5b59a" stroke-width="1.51"/><path d="M1455,-115L1403,20L1572,-29Z" fill="#d2b989" stroke="#d2b989" stroke-width="1.51"/><path d="M1403,20L1544,97L1572,-29Z" fill="#dfbf85" stroke="#dfbf85" stroke-width="1.51"/><path d="M1198,-148L1349,-87L1455,-115Z" fill="#b49f82" stroke="#b49f82" stroke-width="1.51"/><path d="M1410,132L1407,198L1519,232Z" fill="#e2be8f" stroke="#e2be8f" stroke-width="1.51"/><path d="M1519,232L1464,340L1535,331Z" fill="#f3ece5" stroke="#f3ece5" stroke-width="1.51"/><path d="M1410,132L1519,232L1544,97Z" fill="#deb781" stroke="#deb781" stroke-width="1.51"/><path d="M1535,331L1464,340L1550,407Z" fill="#c8c6c2" stroke="#c8c6c2" stroke-width="1.51"/><path d="M1464,340L1450,423L1550,407Z" fill="#afaba5" stroke="#afaba5" stroke-width="1.51"/><path d="M1403,20L1410,132L1544,97Z" fill="#dcb67a" stroke="#dcb67a" stroke-width="1.51"/><path d="M932,399L683,443L1038,411Z" fill="#856939" stroke="#856939" stroke-width="1.51"/><path d="M1407,198L1464,340L1519,232Z" fill="#edd8c0" stroke="#edd8c0" stroke-width="1.51"/><path d="M1349,-87L1403,20L1455,-115Z" fill="#c9af81" stroke="#c9af81" stroke-width="1.51"/><path d="M1350,342L1450,423L1464,340Z" fill="#bfb5aa" stroke="#bfb5aa" stroke-width="1.51"/><path d="M1407,198L1350,342L1464,340Z" fill="#f0e0ce" stroke="#f0e0ce" stroke-width="1.51"/><path d="M1321,221L1350,342L1407,198Z" fill="#e9cdab" stroke="#e9cdab" stroke-width="1.51"/><path d="M1350,342L1311,410L1450,423Z" fill="#aa9f8f" stroke="#aa9f8f" stroke-width="1.51"/><path d="M1349,-87L1293,-12L1403,20Z" fill="#d1af70" stroke="#d1af70" stroke-width="1.51"/><path d="M1403,20L1296,111L1410,132Z" fill="#d7af6b" stroke="#d7af6b" stroke-width="1.51"/><path d="M1321,221L1407,198L1410,132Z" fill="#deb781" stroke="#deb781" stroke-width="1.51"/><path d="M1296,111L1321,221L1410,132Z" fill="#d6aa67" stroke="#d6aa67" stroke-width="1.51"/><path d="M1293,-12L1296,111L1403,20Z" fill="#d5ae66" stroke="#d5ae66" stroke-width="1.51"/><path d="M937,-134L1033,-116L1198,-148Z" fill="#a48456" stroke="#a48456" stroke-width="1.51"/><path d="M1033,-116L1100,-118L1198,-148Z" fill="#a78a5e" stroke="#a78a5e" stroke-width="1.51"/><path d="M1321,221L1218,289L1350,342Z" fill="#ebd2b4" stroke="#ebd2b4" stroke-width="1.51"/><path d="M1218,289L1311,410L1350,342Z" fill="#ccbaa4" stroke="#ccbaa4" stroke-width="1.51"/><path d="M1237,-15L1293,-12L1349,-87Z" fill="#cba968" stroke="#cba968" stroke-width="1.51"/><path d="M1198,-148L1237,-15L1349,-87Z" fill="#bb9e6e" stroke="#bb9e6e" stroke-width="1.51"/><path d="M1293,-12L1237,-15L1296,111Z" fill="#d2aa5d" stroke="#d2aa5d" stroke-width="1.51"/><path d="M1237,-15L1229,124L1296,111Z" fill="#d1a557" stroke="#d1a557" stroke-width="1.51"/><path d="M1218,289L1232,433L1311,410Z" fill="#b29f86" stroke="#b29f86" stroke-width="1.51"/><path d="M1296,111L1229,124L1321,221Z" fill="#d3a35b" stroke="#d3a35b" stroke-width="1.51"/><path d="M1229,124L1212,236L1321,221Z" fill="#d9af72" stroke="#d9af72" stroke-width="1.51"/><path d="M1212,236L1218,289L1321,221Z" fill="#e3c194" stroke="#e3c194" stroke-width="1.51"/><path d="M1151,96L1098,227L1212,236Z" fill="#d3a35b" stroke="#d3a35b" stroke-width="1.51"/><path d="M1089,310L1093,378L1218,289Z" fill="#d8bc98" stroke="#d8bc98" stroke-width="1.51"/><path d="M1151,96L1212,236L1229,124Z" fill="#ce9c4c" stroke="#ce9c4c" stroke-width="1.51"/><path d="M1093,378L1038,411L1232,433Z" fill="#957d5a" stroke="#957d5a" stroke-width="1.51"/><path d="M1218,289L1093,378L1232,433Z" fill="#b8a181" stroke="#b8a181" stroke-width="1.51"/><path d="M1085,9L1151,96L1237,-15Z" fill="#cb9e47" stroke="#cb9e47" stroke-width="1.51"/><path d="M1198,-148L1100,-118L1237,-15Z" fill="#b49561" stroke="#b49561" stroke-width="1.51"/><path d="M1100,-118L1085,9L1237,-15Z" fill="#c19a4e" stroke="#c19a4e" stroke-width="1.51"/><path d="M1151,96L1229,124L1237,-15Z" fill="#cea14f" stroke="#cea14f" stroke-width="1.51"/><path d="M518,-141L707,-92L937,-134Z" fill="#a18145" stroke="#a18145" stroke-width="1.51"/><path d="M707,-92L834,-101L937,-134Z" fill="#a58141" stroke="#a58141" stroke-width="1.51"/><path d="M1212,236L1098,227L1218,289Z" fill="#e0bb88" stroke="#e0bb88" stroke-width="1.51"/><path d="M1098,227L1089,310L1218,289Z" fill="#e3c091" stroke="#e3c091" stroke-width="1.51"/><path d="M518,-141L561,-122L707,-92Z" fill="#a38445" stroke="#a38445" stroke-width="1.51"/><path d="M1085,9L1044,25L1151,96Z" fill="#c7983a" stroke="#c7983a" stroke-width="1.51"/><path d="M1044,25L1012,112L1151,96Z" fill="#c69434" stroke="#c69434" stroke-width="1.51"/><path d="M1012,112L1098,227L1151,96Z" fill="#c69236" stroke="#c69236" stroke-width="1.51"/><path d="M1033,-116L1044,25L1085,9Z" fill="#c0953a" stroke="#c0953a" stroke-width="1.51"/><path d="M1089,310L1032,305L1093,378Z" fill="#d1b389" stroke="#d1b389" stroke-width="1.51"/><path d="M1012,112L1033,220L1098,227Z" fill="#cd9a48" stroke="#cd9a48" stroke-width="1.51"/><path d="M1032,305L1089,310L1098,227Z" fill="#e1bc8a" stroke="#e1bc8a" stroke-width="1.51"/><path d="M1033,220L1032,305L1098,227Z" fill="#dab073" stroke="#dab073" stroke-width="1.51"/><path d="M1033,-116L1085,9L1100,-118Z" fill="#b48e4b" stroke="#b48e4b" stroke-width="1.51"/><path d="M1032,305L1038,411L1093,378Z" fill="#b4976d" stroke="#b4976d" stroke-width="1.51"/><path d="M576,437L503,448L683,443Z" fill="#715b2a" stroke="#715b2a" stroke-width="1.51"/><path d="M937,-134L874,-21L1033,-116Z" fill="#aa823b" stroke="#aa823b" stroke-width="1.51"/><path d="M900,301L1032,305L1033,220Z" fill="#dcb277" stroke="#dcb277" stroke-width="1.51"/><path d="M1012,112L941,181L1033,220Z" fill="#c69033" stroke="#c69033" stroke-width="1.51"/><path d="M1032,305L932,399L1038,411Z" fill="#ac8c5f" stroke="#ac8c5f" stroke-width="1.51"/><path d="M897,114L1012,112L1044,25Z" fill="#c08c21" stroke="#c08c21" stroke-width="1.51"/><path d="M874,-21L897,114L1044,25Z" fill="#bf8d1c" stroke="#bf8d1c" stroke-width="1.51"/><path d="M1033,-116L874,-21L1044,25Z" fill="#b98d2f" stroke="#b98d2f" stroke-width="1.51"/><path d="M791,380L683,443L932,399Z" fill="#8d7141" stroke="#8d7141" stroke-width="1.51"/><path d="M900,301L932,399L1032,305Z" fill="#c8a573" stroke="#c8a573" stroke-width="1.51"/><path d="M941,181L900,301L1033,220Z" fill="#d2a157" stroke="#d2a157" stroke-width="1.51"/><path d="M897,114L941,181L1012,112Z" fill="#be8719" stroke="#be8719" stroke-width="1.51"/><path d="M834,-101L874,-21L937,-134Z" fill="#ab843b" stroke="#ab843b" stroke-width="1.51"/><path d="M786,218L900,301L941,181Z" fill="#d1a358" stroke="#d1a358" stroke-width="1.51"/><path d="M897,114L786,218L941,181Z" fill="#c38e2c" stroke="#c38e2c" stroke-width="1.51"/><path d="M900,301L791,380L932,399Z" fill="#b39361" stroke="#b39361" stroke-width="1.51"/><path d="M874,-21L807,6L897,114Z" fill="#bf8f1d" stroke="#bf8f1d" stroke-width="1.51"/><path d="M807,6L779,94L897,114Z" fill="#bf8d1d" stroke="#bf8d1d" stroke-width="1.51"/><path d="M779,94L786,218L897,114Z" fill="#bf891a" stroke="#bf891a" stroke-width="1.51"/><path d="M770,316L791,380L900,301Z" fill="#cba976" stroke="#cba976" stroke-width="1.51"/><path d="M786,218L770,316L900,301Z" fill="#dbb375" stroke="#dbb375" stroke-width="1.51"/><path d="M834,-101L807,6L874,-21Z" fill="#b78d2c" stroke="#b78d2c" stroke-width="1.51"/><path d="M779,94L727,200L786,218Z" fill="#c48f2c" stroke="#c48f2c" stroke-width="1.51"/><path d="M707,-92L807,6L834,-101Z" fill="#b18a34" stroke="#b18a34" stroke-width="1.51"/><path d="M711,130L727,200L779,94Z" fill="#bf8a1b" stroke="#bf8a1b" stroke-width="1.51"/><path d="M663,-19L779,94L807,6Z" fill="#c0911f" stroke="#c0911f" stroke-width="1.51"/><path d="M707,-92L663,-19L807,6Z" fill="#b98f2c" stroke="#b98f2c" stroke-width="1.51"/><path d="M663,-19L711,130L779,94Z" fill="#bf8f1e" stroke="#bf8f1e" stroke-width="1.51"/><path d="M730,319L770,316L786,218Z" fill="#dcb67a" stroke="#dcb67a" stroke-width="1.51"/><path d="M727,200L730,319L786,218Z" fill="#d4a961" stroke="#d4a961" stroke-width="1.51"/><path d="M770,316L730,319L791,380Z" fill="#c6a572" stroke="#c6a572" stroke-width="1.51"/><path d="M730,319L683,443L791,380Z" fill="#a38654" stroke="#a38654" stroke-width="1.51"/><path d="M663,-19L623,74L711,130Z" fill="#bf911e" stroke="#bf911e" stroke-width="1.51"/><path d="M711,130L613,213L727,200Z" fill="#c69435" stroke="#c69435" stroke-width="1.51"/><path d="M611,336L683,443L730,319Z" fill="#af925f" stroke="#af925f" stroke-width="1.51"/><path d="M727,200L613,213L730,319Z" fill="#d4a960" stroke="#d4a960" stroke-width="1.51"/><path d="M613,213L611,336L730,319Z" fill="#ddb97e" stroke="#ddb97e" stroke-width="1.51"/><path d="M623,74L613,213L711,130Z" fill="#bf8c1c" stroke="#bf8c1c" stroke-width="1.51"/><path d="M561,-122L663,-19L707,-92Z" fill="#ae893a" stroke="#ae893a" stroke-width="1.51"/><path d="M582,14L623,74L663,-19Z" fill="#c09320" stroke="#c09320" stroke-width="1.51"/><path d="M611,336L576,437L683,443Z" fill="#8f7543" stroke="#8f7543" stroke-width="1.51"/><path d="M72,-135L166,-112L374,-134Z" fill="#927e55" stroke="#927e55" stroke-width="1.51"/><path d="M561,-122L582,14L663,-19Z" fill="#b7902f" stroke="#b7902f" stroke-width="1.51"/><path d="M505,308L611,336L613,213Z" fill="#dcb97c" stroke="#dcb97c" stroke-width="1.51"/><path d="M517,97L613,213L623,74Z" fill="#bf8e1d" stroke="#bf8e1d" stroke-width="1.51"/><path d="M582,14L517,97L623,74Z" fill="#bf921f" stroke="#bf921f" stroke-width="1.51"/><path d="M561,-122L481,-17L582,14Z" fill="#b79130" stroke="#b79130" stroke-width="1.51"/><path d="M505,308L576,437L611,336Z" fill="#b39863" stroke="#b39863" stroke-width="1.51"/><path d="M517,97L455,176L613,213Z" fill="#c29127" stroke="#c29127" stroke-width="1.51"/><path d="M455,176L505,308L613,213Z" fill="#d2a85a" stroke="#d2a85a" stroke-width="1.51"/><path d="M505,308L503,448L576,437Z" fill="#957c49" stroke="#957c49" stroke-width="1.51"/><path d="M481,-17L517,97L582,14Z" fill="#c09420" stroke="#c09420" stroke-width="1.51"/><path d="M518,-141L481,-17L561,-122Z" fill="#aa883f" stroke="#aa883f" stroke-width="1.51"/><path d="M386,394L299,430L503,448Z" fill="#806c38" stroke="#806c38" stroke-width="1.51"/><path d="M455,176L401,229L505,308Z" fill="#d3ab5e" stroke="#d3ab5e" stroke-width="1.51"/><path d="M386,394L503,448L505,308Z" fill="#a18854" stroke="#a18854" stroke-width="1.51"/><path d="M389,309L386,394L505,308Z" fill="#c7ac76" stroke="#c7ac76" stroke-width="1.51"/><path d="M481,-17L387,9L517,97Z" fill="#c09621" stroke="#c09621" stroke-width="1.51"/><path d="M387,9L366,109L517,97Z" fill="#c09420" stroke="#c09420" stroke-width="1.51"/><path d="M374,-134L481,-17L518,-141Z" fill="#a88941" stroke="#a88941" stroke-width="1.51"/><path d="M366,109L455,176L517,97Z" fill="#bf901e" stroke="#bf901e" stroke-width="1.51"/><path d="M401,229L389,309L505,308Z" fill="#dbbb7b" stroke="#dbbb7b" stroke-width="1.51"/><path d="M374,-134L387,9L481,-17Z" fill="#b69232" stroke="#b69232" stroke-width="1.51"/><path d="M366,109L401,229L455,176Z" fill="#c49630" stroke="#c49630" stroke-width="1.51"/><path d="M307,-4L275,62L366,109Z" fill="#bb9229" stroke="#bb9229" stroke-width="1.51"/><path d="M166,-112L312,-95L374,-134Z" fill="#9d834c" stroke="#9d834c" stroke-width="1.51"/><path d="M307,-4L366,109L387,9Z" fill="#be9525" stroke="#be9525" stroke-width="1.51"/><path d="M374,-134L312,-95L387,9Z" fill="#ad8d3d" stroke="#ad8d3d" stroke-width="1.51"/><path d="M312,-95L307,-4L387,9Z" fill="#b79331" stroke="#b79331" stroke-width="1.51"/><path d="M261,334L386,394L389,309Z" fill="#bda572" stroke="#bda572" stroke-width="1.51"/><path d="M290,172L261,334L389,309Z" fill="#d4b57a" stroke="#d4b57a" stroke-width="1.51"/><path d="M290,172L389,309L401,229Z" fill="#d1ab5f" stroke="#d1ab5f" stroke-width="1.51"/><path d="M366,109L290,172L401,229Z" fill="#c29532" stroke="#c29532" stroke-width="1.51"/><path d="M159,386L35,427L299,430Z" fill="#776a4c" stroke="#776a4c" stroke-width="1.51"/><path d="M261,334L299,430L386,394Z" fill="#998557" stroke="#998557" stroke-width="1.51"/><path d="M275,62L290,172L366,109Z" fill="#bb8f27" stroke="#bb8f27" stroke-width="1.51"/><path d="M143,217L153,300L261,334Z" fill="#cbb389" stroke="#cbb389" stroke-width="1.51"/><path d="M143,217L261,334L290,172Z" fill="#c7a76b" stroke="#c7a76b" stroke-width="1.51"/><path d="M169,-5L307,-4L312,-95Z" fill="#b18f39" stroke="#b18f39" stroke-width="1.51"/><path d="M166,-112L169,-5L312,-95Z" fill="#a38747" stroke="#a38747" stroke-width="1.51"/><path d="M275,62L182,67L290,172Z" fill="#b68d2e" stroke="#b68d2e" stroke-width="1.51"/><path d="M169,-5L275,62L307,-4Z" fill="#b79131" stroke="#b79131" stroke-width="1.51"/><path d="M261,334L159,386L299,430Z" fill="#96835d" stroke="#96835d" stroke-width="1.51"/><path d="M182,67L143,217L290,172Z" fill="#b38832" stroke="#b38832" stroke-width="1.51"/><path d="M169,-5L182,67L275,62Z" fill="#b38e34" stroke="#b38e34" stroke-width="1.51"/><path d="M153,300L159,386L261,334Z" fill="#b4a280" stroke="#b4a280" stroke-width="1.51"/><path d="M68,107L77,195L143,217Z" fill="#b08a49" stroke="#b08a49" stroke-width="1.51"/><path d="M72,-135L79,10L166,-112Z" fill="#998150" stroke="#998150" stroke-width="1.51"/><path d="M166,-112L79,10L169,-5Z" fill="#a78943" stroke="#a78943" stroke-width="1.51"/><path d="M68,107L143,217L182,67Z" fill="#ad8637" stroke="#ad8637" stroke-width="1.51"/><path d="M169,-5L79,10L182,67Z" fill="#af8c3a" stroke="#af8c3a" stroke-width="1.51"/><path d="M79,10L68,107L182,67Z" fill="#ac893b" stroke="#ac893b" stroke-width="1.51"/><path d="M153,300L79,322L159,386Z" fill="#b1a386" stroke="#b1a386" stroke-width="1.51"/><path d="M143,217L79,322L153,300Z" fill="#c5af8a" stroke="#c5af8a" stroke-width="1.51"/><path d="M79,322L35,427L159,386Z" fill="#8d8069" stroke="#8d8069" stroke-width="1.51"/><path d="M77,195L79,322L143,217Z" fill="#bda276" stroke="#bda276" stroke-width="1.51"/><path d="M-112,-148L-70,-92L72,-135Z" fill="#807462" stroke="#807462" stroke-width="1.51"/><path d="M68,107L-27,112L77,195Z" fill="#a7813e" stroke="#a7813e" stroke-width="1.51"/><path d="M-27,112L-50,174L77,195Z" fill="#a68247" stroke="#a68247" stroke-width="1.51"/><path d="M-50,174L-65,330L77,195Z" fill="#b29976" stroke="#b29976" stroke-width="1.51"/><path d="M-27,112L68,107L79,10Z" fill="#a78540" stroke="#a78540" stroke-width="1.51"/><path d="M-60,17L-27,112L79,10Z" fill="#a48544" stroke="#a48544" stroke-width="1.51"/><path d="M72,-135L-70,-92L79,10Z" fill="#957f53" stroke="#957f53" stroke-width="1.51"/><path d="M-70,-92L-60,17L79,10Z" fill="#a0854a" stroke="#a0854a" stroke-width="1.51"/><path d="M77,195L-65,330L79,322Z" fill="#bdac92" stroke="#bdac92" stroke-width="1.51"/><path d="M-65,330L35,427L79,322Z" fill="#958b7b" stroke="#958b7b" stroke-width="1.51"/><path d="M-65,330L-69,419L35,427Z" fill="#777167" stroke="#777167" stroke-width="1.51"/><path d="M-127,292L-65,330L-50,174Z" fill="#b0a18d" stroke="#b0a18d" stroke-width="1.51"/><path d="M-149,218L-127,292L-50,174Z" fill="#a99478" stroke="#a99478" stroke-width="1.51"/><path d="M-130,96L-50,174L-27,112Z" fill="#9f7d46" stroke="#9f7d46" stroke-width="1.51"/><path d="M-60,17L-130,96L-27,112Z" fill="#9f8048" stroke="#9f8048" stroke-width="1.51"/><path d="M-168,390L-69,419L-65,330Z" fill="#7b7873" stroke="#7b7873" stroke-width="1.51"/><path d="M-70,-92L-175,-33L-60,17Z" fill="#957f53" stroke="#957f53" stroke-width="1.51"/><path d="M-130,96L-149,218L-50,174Z" fill="#9e7e4f" stroke="#9e7e4f" stroke-width="1.51"/><path d="M-175,-33L-130,96L-60,17Z" fill="#9b814c" stroke="#9b814c" stroke-width="1.51"/><path d="M-127,292L-168,390L-65,330Z" fill="#999693" stroke="#999693" stroke-width="1.51"/><path d="M-112,-148L-175,-33L-70,-92Z" fill="#83765f" stroke="#83765f" stroke-width="1.51"/><path d="M-149,218L-168,390L-127,292Z" fill="#adaaa7" stroke="#adaaa7" stroke-width="1.51"/><path d="M-175,-33L-149,218L-130,96Z" fill="#997c4d" stroke="#997c4d" stroke-width="1.51"/><path d="M-175,-33L-168,390L-149,218Z" fill="#9f8565" stroke="#9f8565" stroke-width="1.51"/></svg>